<?xml version="1.0" encoding="UTF-8" standalone="no"?>
<!-- Created with Inkscape (http://www.inkscape.org/) -->

<svg
   width="210mm"
   height="210mm"
   viewBox="0 0 210 210"
   version="1.1"
   id="svg1"
   inkscape:version="1.4 (86a8ad7, 2024-10-11)"
   sodipodi:docname="Api.svg"
   xmlns:inkscape="http://www.inkscape.org/namespaces/inkscape"
   xmlns:sodipodi="http://sodipodi.sourceforge.net/DTD/sodipodi-0.dtd"
   xmlns="http://www.w3.org/2000/svg"
   xmlns:svg="http://www.w3.org/2000/svg">
  <sodipodi:namedview
     id="namedview1"
     pagecolor="#ffffff"
     bordercolor="#000000"
     borderopacity="0.25"
     inkscape:showpageshadow="2"
     inkscape:pageopacity="0.0"
     inkscape:pagecheckerboard="0"
     inkscape:deskcolor="#d1d1d1"
     inkscape:document-units="mm"
     inkscape:zoom="0.63991264"
     inkscape:cx="436.77837"
     inkscape:cy="293.00875"
     inkscape:window-width="1920"
     inkscape:window-height="974"
     inkscape:window-x="-11"
     inkscape:window-y="-11"
     inkscape:window-maximized="1"
     inkscape:current-layer="layer1" />
  <defs
     id="defs1" />
  <g
     inkscape:label="Layer 1"
     inkscape:groupmode="layer"
     id="layer1">
    <path
       style="fill:#008080;fill-opacity:1;stroke:none;stroke-width:0.142;stroke-dasharray:none;stroke-opacity:1"
       d="m 124.61976,82.137463 c -4.4449,-2.020409 -13.73877,7.27347 -1.21224,10.708163 12.52653,3.434694 -1.81837,10.506124 -1.81837,10.506124 0,0 25.86122,2.82857 4.4449,27.47755 -21.41633,24.64898 -36.165309,-0.80817 -39.397962,-0.80817 -6.667345,-10.30408 -18.587753,3.03062 -6.667345,-10.30408 11.920408,-13.33469 15.961224,-10.30407 15.961224,-10.30407 0,0 -19.597959,-13.132659 -2.828571,-15.557149 16.769384,-2.424489 3.232653,-6.263265 12.324494,-10.304081 9.09183,-4.040817 9.29387,-13.536735 9.29387,-13.536735 z"
       id="path1"
       inkscape:export-filename="pcxxZCzczcczcath1.png"
       inkscape:export-xdpi="598.29858"
       inkscape:export-ydpi="598.29858" />
    <path
       style="fill:#00a2a2;fill-opacity:1;stroke:none;stroke-width:0.091758;stroke-dasharray:none;stroke-opacity:1"
       d="m 116.96033,91.588432 c -2.53233,-1.480766 -7.82722,5.330754 -0.69063,7.848055 7.1366,2.517303 -1.03595,7.699983 -1.03595,7.699983 0,0 14.73359,2.07307 2.53233,20.1384 -12.20126,18.06534 -20.604025,-0.59231 -22.445725,-0.59231 -3.798506,-7.5519 -10.589777,2.22115 -3.798506,-7.5519 6.791271,-9.77305 9.093401,-7.5519 9.093401,-7.5519 0,0 -11.165314,-9.62497 -1.611494,-11.40189 9.553824,-1.776917 1.841704,-4.590372 7.021484,-7.5519 5.17977,-2.961532 5.29489,-9.921127 5.29489,-9.921127 z"
       id="path2" />
    <path
       style="fill:#5cbcde;fill-opacity:1;stroke:none;stroke-width:0.0513781;stroke-dasharray:none;stroke-opacity:1"
       d="m 112.37168,99.219272 c -1.41793,-0.829126 -4.3827,2.984858 -0.38671,4.394368 3.996,1.40951 -0.58006,4.31145 -0.58006,4.31145 0,0 8.24979,1.16078 1.41793,11.2761 -6.83186,10.11534 -11.53682,-0.33165 -12.56804,-0.33165 -2.1269,-4.22854 -5.929539,1.24369 -2.1269,-4.22854 3.80264,-5.47222 5.09167,-4.22854 5.09167,-4.22854 0,0 -6.251797,-5.38931 -0.90232,-6.38426 5.34947,-0.99495 1.03122,-2.57029 3.93154,-4.228539 2.90031,-1.658251 2.96477,-5.55514 2.96477,-5.55514 z"
       id="path3" />
    <path
       style="fill:#008080;fill-opacity:1;stroke:none;stroke-width:0.106563;stroke-dasharray:none;stroke-opacity:1"
       d="m 132.67533,92.299137 c 0,0 -3.98239,-7.879593 -1.02404,-8.889796 2.95834,-1.010206 5.34777,1.010203 3.98238,4.242856 -1.36539,3.232655 -2.95834,4.64694 -2.95834,4.64694 z"
       id="path5" />
    <path
       style="fill:#008080;fill-opacity:1;stroke:none;stroke-width:0.104576;stroke-dasharray:none;stroke-opacity:1"
       d="m 114.74225,55.919894 c 0,0 -3.83529,-7.879593 -0.98622,-8.889796 2.84907,-1.010206 5.15023,1.010203 3.83528,4.242856 -1.31495,3.232655 -2.84906,4.64694 -2.84906,4.64694 z"
       id="path6" />
    <path
       style="fill:#008080;fill-opacity:1;stroke:none;stroke-width:0.0887974;stroke-dasharray:none;stroke-opacity:1"
       d="m 125.42062,70.870915 c 0,0 4.42201,-4.927376 1.13709,-5.55909 -3.28492,-0.631716 -5.93812,0.631714 -4.422,2.653201 1.5161,2.021489 3.28491,2.905889 3.28491,2.905889 z"
       id="path7" />
    <path
       style="fill:#008080;fill-opacity:1;stroke:none;stroke-width:0.112312;stroke-dasharray:none;stroke-opacity:1"
       d="m 76.324166,105.61004 c 0,0 -4.423676,-7.879595 -1.137517,-8.889794 3.286159,-1.01021 5.940363,1.010199 4.423675,4.242854 -1.516687,3.23265 -3.286158,4.64694 -3.286158,4.64694 z"
       id="path8" />
    <path
       style="fill:#008080;fill-opacity:1;stroke:none;stroke-width:0.127351;stroke-dasharray:none;stroke-opacity:1"
       d="m 99.533645,78.066642 c 0,0 -4.203031,-10.66297 -1.080782,-12.030016 3.122247,-1.36705 5.644067,1.367046 4.203037,5.741597 -1.44104,4.374554 -3.122255,6.288419 -3.122255,6.288419 z"
       id="path9" />
    <path
       style="fill:#5cbcde;fill-opacity:1;stroke:none;stroke-width:0.0365072;stroke-dasharray:none;stroke-opacity:1"
       d="m 76.78718,102.52166 c 0,0 -1.437923,-2.56128 -0.369751,-2.889646 1.068171,-0.328371 1.930925,0.328366 1.437922,1.379146 -0.493001,1.05078 -1.068171,1.5105 -1.068171,1.5105 z"
       id="path10" />
    <path
       style="fill:#5cbcde;fill-opacity:1;stroke:none;stroke-width:0.042949;stroke-dasharray:none;stroke-opacity:1"
       d="m 99.965615,73.962848 c 0,0 -1.417469,-3.596077 -0.364492,-4.057112 1.052977,-0.461037 1.903457,0.461035 1.417467,1.936348 -0.48599,1.475315 -1.052975,2.120764 -1.052975,2.120764 z"
       id="path11" />
    <path
       style="fill:#5cbcde;fill-opacity:1;stroke:none;stroke-width:0.0409091;stroke-dasharray:none;stroke-opacity:1"
       d="m 115.10434,53.134141 c 0,0 -1.50033,-3.082417 -0.3858,-3.477599 1.11453,-0.395182 2.01472,0.395182 1.50032,1.659763 -0.51439,1.264582 -1.11452,1.817836 -1.11452,1.817836 z"
       id="path12" />
    <path
       style="fill:#5cbcde;fill-opacity:1;stroke:none;stroke-width:0.0392687;stroke-dasharray:none;stroke-opacity:1"
       d="m 125.03813,69.274927 c 0,0 1.95554,-2.179022 0.50286,-2.458384 -1.45269,-0.279363 -2.62601,0.279362 -1.95554,1.173319 0.67046,0.893959 1.45268,1.285065 1.45268,1.285065 z"
       id="path13" />
    <path
       style="fill:#5cbcde;fill-opacity:1;stroke:none;stroke-width:0.0439578;stroke-dasharray:none;stroke-opacity:1"
       d="m 133.03815,89.610919 c 0,0 -1.64276,-3.250377 -0.42243,-3.667092 1.22034,-0.416716 2.20599,0.416715 1.64276,1.750203 -0.56323,1.333488 -1.22033,1.916889 -1.22033,1.916889 z"
       id="path14" />
    <text
       xml:space="preserve"
       style="font-style:normal;font-variant:normal;font-weight:bold;font-stretch:normal;font-size:21.3729px;font-family:Poppins;-inkscape-font-specification:'Poppins, Bold';font-variant-ligatures:normal;font-variant-caps:normal;font-variant-numeric:normal;font-variant-east-asian:normal;text-align:start;writing-mode:lr-tb;direction:ltr;text-anchor:start;fill:#008080;fill-opacity:1;stroke:none;stroke-width:0.110423;stroke-dasharray:none;stroke-opacity:1"
       x="39.994297"
       y="163.06059"
       id="text14"><tspan
         sodipodi:role="line"
         id="tspan14"
         style="font-style:normal;font-variant:normal;font-weight:bold;font-stretch:normal;font-size:21.3729px;font-family:Poppins;-inkscape-font-specification:'Poppins, Bold';font-variant-ligatures:normal;font-variant-caps:normal;font-variant-numeric:normal;font-variant-east-asian:normal;fill:#008080;stroke-width:0.110423"
         x="39.994297"
         y="163.06059">Masak Batu</tspan></text>
  </g>
</svg>
