<?xml version="1.0" encoding="UTF-8" standalone="no"?>
<!-- Created with Inkscape (http://www.inkscape.org/) -->

<svg
   width="1080"
   height="1080"
   viewBox="0 0 285.75 285.74999"
   version="1.1"
   id="svg1"
   inkscape:version="1.4 (86a8ad7, 2024-10-11)"
   sodipodi:docname="bubugs.svg"
   xmlns:inkscape="http://www.inkscape.org/namespaces/inkscape"
   xmlns:sodipodi="http://sodipodi.sourceforge.net/DTD/sodipodi-0.dtd"
   xmlns="http://www.w3.org/2000/svg"
   xmlns:svg="http://www.w3.org/2000/svg">
  <sodipodi:namedview
     id="namedview1"
     pagecolor="#ffffff"
     bordercolor="#000000"
     borderopacity="0.25"
     inkscape:showpageshadow="2"
     inkscape:pageopacity="0.0"
     inkscape:pagecheckerboard="0"
     inkscape:deskcolor="#d1d1d1"
     inkscape:document-units="mm"
     inkscape:zoom="0.52666841"
     inkscape:cx="526.89699"
     inkscape:cy="545.88427"
     inkscape:window-width="1920"
     inkscape:window-height="974"
     inkscape:window-x="-11"
     inkscape:window-y="-11"
     inkscape:window-maximized="1"
     inkscape:current-layer="g91" />
  <defs
     id="defs1" />
  <g
     inkscape:label="Layer 1"
     inkscape:groupmode="layer"
     id="layer1">
    <g
       id="g91"
       transform="translate(-0.00109863,24.562757)">
      <rect
         style="fill:#ffffff;fill-opacity:1;stroke:none;stroke-width:0.264583;stroke-opacity:1"
         id="rect91"
         width="287.85901"
         height="287.85901"
         x="-1.0545044"
         y="-1.0545044"
         transform="translate(0.00109863,-24.562757)"
         inkscape:export-filename="pcxxZCzczcghfhfghczcath1.png"
         inkscape:export-xdpi="264.71295"
         inkscape:export-ydpi="264.71295" />
      <g
         id="g90">
        <circle
           style="fill:#000000;fill-opacity:1;stroke:#000000;stroke-width:0.264583;stroke-opacity:1"
           id="path66"
           cx="142.8761"
           cy="98.827126"
           r="68.381866" />
        <g
           id="g89">
          <path
             d="m 127.5226,133.96392 a 43.160503,20.248137 0 0 1 7.63984,-0.95964 l 0.53072,-7.83879 h -8.17056 z"
             style="fill:#ffffff;stroke-width:0.298979"
             id="path64" />
          <path
             d="m 115.7998,137.01024 a 43.160503,20.248137 0 0 1 7.68273,-2.22777 l 0.48783,-6.1004 h -8.17056 z"
             style="fill:#ffffff;stroke-width:0.264583"
             id="path62" />
          <path
             d="m 160.82547,134.61297 a 43.160503,20.248137 0 0 1 7.43263,2.096 l -0.32763,-2.07688 1.06557,-5.95002 h -8.17057 z"
             style="fill:#ffffff;stroke-width:0.264583"
             id="path60" />
          <path
             d="m 150.75115,133.06268 a 43.160503,20.248137 0 0 1 7.17114,0.9679 l -0.0274,-1.35186 0.17777,-7.51323 h -8.17056 l 0.88832,7.51323 z"
             style="fill:#ffffff;stroke-width:0.298979"
             id="path58" />
          <path
             d="m 138.53485,121.3342 v 11.46441 a 43.160503,20.248137 0 0 1 3.89743,-0.11989 43.160503,20.248137 0 0 1 3.79409,0.0786 l -0.0538,-0.96686 0.53279,-10.45621 z"
             style="fill:#ffffff;stroke-width:0.332429"
             id="path55" />
          <path
             d="m 168.99604,110.56534 h -8.17057 l 0.53285,7.54879 -0.53285,10.12404 h 8.17057 l -1.06569,-7.99265 z"
             style="fill:#ffffff;stroke-width:0.264583"
             id="path34"
             sodipodi:nodetypes="ccccccc" />
          <path
             d="m 115.80001,110.56534 h 8.17057 l -0.71046,8.7921 0.71046,8.88073 h -8.17057 l 0.71046,-7.99265 z"
             style="fill:#ffffff;stroke-width:0.264583"
             id="path37"
             sodipodi:nodetypes="ccccccc" />
          <path
             d="m 127.52262,102.03215 h 8.17057 l -1.06569,10.04307 1.06569,12.52347 h -8.17057 l 0.88808,-10.74732 z"
             style="fill:#ffffff;stroke-width:0.298979"
             id="path43"
             sodipodi:nodetypes="ccccccc" />
          <path
             d="m 158.07271,102.03215 h -8.17057 l 0.88808,10.75353 -0.88808,11.81301 h 8.17057 l -0.35523,-11.28017 z"
             style="fill:#ffffff;stroke-width:0.298979"
             id="path40"
             sodipodi:nodetypes="ccccccc" />
          <path
             d="m 138.53476,92.734791 h 8.17057 l -0.53285,14.189579 0.53285,13.70892 h -8.17057 l 0.88808,-15.48507 z"
             style="fill:#ffffff;stroke-width:0.332429"
             id="path27"
             sodipodi:nodetypes="ccccccc" />
          <path
             d="m 168.99604,102.26094 c -1.08877,-0.77591 -2.59531,-1.58866 -4.62866,-2.17454 -1.36721,-0.393945 -2.54486,-1.00058 -3.54191,-1.68052 v 11.44891 h 8.17057 z"
             style="fill:#ffffff;stroke-width:0.264583"
             id="path35" />
          <path
             d="m 115.80001,102.26094 c 1.08877,-0.77591 2.59531,-1.58866 4.62866,-2.17454 1.36721,-0.393945 2.54486,-1.00058 3.54191,-1.68052 v 11.44891 h -8.17057 z"
             style="fill:#ffffff;stroke-width:0.264583"
             id="path38" />
          <path
             d="m 127.52262,91.428208 c 1.08877,-0.990764 2.59531,-2.028569 4.62866,-2.776683 1.36721,-0.503031 2.54486,-1.277647 3.54191,-2.145866 l -0.35523,8.340879 0.35523,6.278302 h -8.17057 z"
             style="fill:#ffffff;stroke-width:0.298979"
             id="path44"
             sodipodi:nodetypes="csccccc" />
          <path
             d="m 158.07271,91.428208 c -1.08877,-0.990764 -2.59531,-2.028569 -4.62866,-2.776683 -1.36721,-0.503031 -2.54486,-1.277647 -3.54191,-2.145866 v 14.619181 h 8.17057 z"
             style="fill:#ffffff;stroke-width:0.298979"
             id="path41" />
          <path
             d="m 138.53476,79.625381 c 1.08877,-1.224859 2.59531,-2.507873 4.62866,-3.43275 1.36721,-0.621885 2.54486,-1.579525 3.54191,-2.652884 l -0.17762,11.182722 0.17762,6.890635 h -8.17057 l 0.53285,-5.292098 z"
             style="fill:#ffffff;stroke-width:0.332429"
             id="path32"
             sodipodi:nodetypes="cscccccc" />
          <path
             id="rect47"
             style="fill:#ffffff;fill-opacity:1;stroke:#000000;stroke-width:0.264583;stroke-opacity:1"
             d="m 118.98668,65.362419 v 9.236128 h 2.00247 c 1.76206,-1.401802 3.83113,-2.789955 5.81256,-4.020943 v -5.215185 z" />
          <path
             style="fill:#ffffff;fill-opacity:1;stroke:none;stroke-width:0.264583;stroke-opacity:1"
             d="m 101.04771,104.61538 c 0,0 39.6082,-98.2212314 83.65678,-1.0657 0,0 -39.96343,-80.637305 -83.65678,1.0657 z"
             id="path45" />
          <path
             style="fill:#ffffff;fill-opacity:1;stroke:#000000;stroke-width:0.14503;stroke-opacity:1"
             d="m 168.63291,116.05589 c 0,0 4.29063,0.89136 5.85387,-5.44237 0,0 -4.72144,0.10827 -5.85387,5.44237 z"
             id="path51" />
          <path
             style="fill:#ffffff;fill-opacity:1;stroke:#000000;stroke-width:0.14503;stroke-opacity:1"
             d="m 111.62855,106.72951 c 0,0 -1.7645,4.01131 4.10542,6.85805 0,0 0.87637,-4.64066 -4.10542,-6.85805 z"
             id="path52" />
          <path
             style="fill:#ffffff;fill-opacity:1;stroke:#000000;stroke-width:0.14503;stroke-opacity:1"
             d="m 110.10605,118.44625 c 0,0 4.21938,1.1836 6.21343,-5.02798 0,0 -4.71775,-0.21587 -6.21343,5.02798 z"
             id="path49" />
          <path
             style="fill:#ffffff;fill-opacity:1;stroke:#000000;stroke-width:0.14503;stroke-opacity:1"
             d="m 168.59352,115.95344 c 0,0 0.16383,4.37918 6.68762,4.37754 0,0 -1.23761,-4.55763 -6.68762,-4.37754 z"
             id="path50" />
          <path
             style="fill:#ffffff;fill-opacity:1;stroke:#000000;stroke-width:0.146322;stroke-opacity:1"
             d="m 168.84116,116.59149 c 0,0 6.68062,-4.37028 13.33224,-4.36865 0,0 -8.04125,4.54837 -13.33224,4.36865 z"
             id="path53" />
          <path
             style="fill:#ffffff;fill-opacity:1;stroke:#000000;stroke-width:0.146322;stroke-opacity:1"
             d="m 102.57852,108.352 c 0,0 7.8504,1.44949 12.66196,6.0422 0,0 -8.95781,-2.25986 -12.66196,-6.0422 z"
             id="path48" />
        </g>
      </g>
      <text
         xml:space="preserve"
         style="font-style:normal;font-variant:normal;font-weight:bold;font-stretch:normal;font-size:29.3339px;font-family:Cambria;-inkscape-font-specification:'Cambria, Bold';font-variant-ligatures:normal;font-variant-caps:normal;font-variant-numeric:normal;font-variant-east-asian:normal;text-align:start;writing-mode:lr-tb;direction:ltr;text-anchor:start;fill:#000000;fill-opacity:1;stroke:#000000;stroke-width:0.355253;stroke-opacity:1"
         x="86.005859"
         y="199.7171"
         id="text65"><tspan
           sodipodi:role="line"
           id="tspan65"
           style="font-style:normal;font-variant:normal;font-weight:bold;font-stretch:normal;font-size:29.3339px;font-family:Cambria;-inkscape-font-specification:'Cambria, Bold';font-variant-ligatures:normal;font-variant-caps:normal;font-variant-numeric:normal;font-variant-east-asian:normal;stroke-width:0.355253"
           x="86.005859"
           y="199.7171">Bug Bug</tspan></text>
    </g>
    <path
       style="fill:#999999;fill-opacity:1;stroke:none;stroke-width:0.0467991;stroke-dasharray:none;stroke-opacity:1"
       d="m 263.70962,251.69402 c -1.46491,-0.66587 -4.5279,2.39713 -0.39952,3.52911 4.12839,1.13197 -0.59928,3.46251 -0.59928,3.46251 0,0 8.52312,0.93222 1.46491,9.05582 -7.05821,8.1236 -11.91905,-0.26635 -12.98444,-0.26635 -2.19737,-3.39593 -6.12599,0.99881 -2.19737,-3.39593 3.92863,-4.39473 5.26037,-3.39593 5.26037,-3.39593 0,0 -6.45893,-4.32815 -0.93222,-5.12719 5.52671,-0.79904 1.06539,-2.06419 4.0618,-3.39593 2.99641,-1.33174 3.063,-4.46132 3.063,-4.46132 z"
       id="path1"
       inkscape:export-filename="pcxxZCzczcczcath1.png"
       inkscape:export-xdpi="598.29858"
       inkscape:export-ydpi="598.29858" />
    <path
       style="fill:#b3b3b3;fill-opacity:1;stroke:none;stroke-width:0.0302408;stroke-dasharray:none;stroke-opacity:1"
       d="m 261.18529,254.80879 c -0.83458,-0.48802 -2.57962,1.75686 -0.22761,2.5865 2.35202,0.82963 -0.34142,2.53769 -0.34142,2.53769 0,0 4.85577,0.68322 0.83459,6.63704 -4.02119,5.95382 -6.7905,-0.19521 -7.39747,-0.19521 -1.25188,-2.48889 -3.49009,0.73203 -1.25188,-2.48889 2.23821,-3.22092 2.99692,-2.48889 2.99692,-2.48889 0,0 -3.67977,-3.17211 -0.5311,-3.75774 3.14867,-0.58562 0.60697,-1.51285 2.31408,-2.48889 1.7071,-0.97603 1.74504,-3.26972 1.74504,-3.26972 z"
       id="path2-8" />
    <path
       style="fill:#cccccc;fill-opacity:1;stroke:none;stroke-width:0.0169328;stroke-dasharray:none;stroke-opacity:1"
       d="m 259.67301,257.3237 c -0.46731,-0.27326 -1.44442,0.98372 -0.12745,1.44826 1.31696,0.46453 -0.19117,1.42093 -0.19117,1.42093 0,0 2.71889,0.38256 0.4673,3.71628 -2.25158,3.33372 -3.8022,-0.10931 -4.14206,-0.10931 -0.70097,-1.3936 -1.95421,0.40989 -0.70097,-1.3936 1.25324,-1.80349 1.67807,-1.39361 1.67807,-1.39361 0,0 -2.06041,-1.77616 -0.29738,-2.10407 1.76303,-0.3279 0.33986,-0.84709 1.29573,-1.3936 0.95585,-0.54652 0.9771,-1.83082 0.9771,-1.83082 z"
       id="path3-2" />
    <path
       style="fill:#999999;fill-opacity:1;stroke:none;stroke-width:0.0351201;stroke-dasharray:none;stroke-opacity:1"
       d="m 266.36451,255.04302 c 0,0 -1.31248,-2.59689 -0.3375,-2.92982 0.97499,-0.33294 1.76248,0.33293 1.31248,1.39832 -0.44999,1.06539 -0.97498,1.5315 -0.97498,1.5315 z"
       id="path5" />
    <path
       style="fill:#999999;fill-opacity:1;stroke:none;stroke-width:0.0344653;stroke-dasharray:none;stroke-opacity:1"
       d="m 260.45428,243.05346 c 0,0 -1.264,-2.59689 -0.32503,-2.92982 0.93897,-0.33294 1.69737,0.33293 1.264,1.39832 -0.43337,1.06539 -0.93897,1.5315 -0.93897,1.5315 z"
       id="path6" />
    <path
       style="fill:#999999;fill-opacity:1;stroke:none;stroke-width:0.0292651;stroke-dasharray:none;stroke-opacity:1"
       d="m 263.97356,247.98089 c 0,0 1.45737,-1.62392 0.37476,-1.83212 -1.08262,-0.20819 -1.95704,0.2082 -1.45737,0.87442 0.49966,0.66623 1.08261,0.9577 1.08261,0.9577 z"
       id="path7-4" />
    <path
       style="fill:#999999;fill-opacity:1;stroke:none;stroke-width:0.0370148;stroke-dasharray:none;stroke-opacity:1"
       d="m 247.79277,259.42991 c 0,0 -1.45791,-2.59689 -0.37489,-2.92982 1.08303,-0.33294 1.95778,0.33293 1.45792,1.39832 -0.49986,1.06539 -1.08303,1.5315 -1.08303,1.5315 z"
       id="path8-5" />
    <path
       style="fill:#999999;fill-opacity:1;stroke:none;stroke-width:0.0419713;stroke-dasharray:none;stroke-opacity:1"
       d="m 255.44196,250.35239 c 0,0 -1.3852,-3.51421 -0.3562,-3.96474 1.029,-0.45055 1.86012,0.45053 1.3852,1.89226 -0.47492,1.44173 -1.029,2.07248 -1.029,2.07248 z"
       id="path9-5" />
    <path
       style="fill:#cccccc;fill-opacity:1;stroke:none;stroke-width:0.0120317;stroke-dasharray:none;stroke-opacity:1"
       d="m 247.94537,258.41207 c 0,0 -0.4739,-0.84412 -0.12186,-0.95234 0.35204,-0.10823 0.63638,0.10822 0.4739,0.45452 -0.16248,0.34631 -0.35204,0.49782 -0.35204,0.49782 z"
       id="path10" />
    <path
       style="fill:#cccccc;fill-opacity:1;stroke:none;stroke-width:0.0141548;stroke-dasharray:none;stroke-opacity:1"
       d="m 255.58432,248.9999 c 0,0 -0.46716,-1.18516 -0.12013,-1.33711 0.34704,-0.15194 0.62733,0.15195 0.46716,0.63817 -0.16017,0.48622 -0.34703,0.69894 -0.34703,0.69894 z"
       id="path11-1" />
    <path
       style="fill:#cccccc;fill-opacity:1;stroke:none;stroke-width:0.0134825;stroke-dasharray:none;stroke-opacity:1"
       d="m 260.57361,242.13535 c 0,0 -0.49446,-1.01587 -0.12715,-1.14611 0.36732,-0.13024 0.664,0.13024 0.49447,0.54701 -0.16953,0.41677 -0.36732,0.5991 -0.36732,0.5991 z"
       id="path12" />
    <path
       style="fill:#cccccc;fill-opacity:1;stroke:none;stroke-width:0.0129418;stroke-dasharray:none;stroke-opacity:1"
       d="m 263.84751,247.4549 c 0,0 0.64449,-0.71815 0.16572,-0.81022 -0.47876,-0.0921 -0.86545,0.0921 -0.64449,0.3867 0.22097,0.29462 0.47877,0.42352 0.47877,0.42352 z"
       id="path13-7" />
    <path
       style="fill:#cccccc;fill-opacity:1;stroke:none;stroke-width:0.0144872;stroke-dasharray:none;stroke-opacity:1"
       d="m 266.48408,254.15706 c 0,0 -0.5414,-1.07123 -0.13922,-1.20857 0.40219,-0.13734 0.72703,0.13734 0.54141,0.57682 -0.18563,0.43948 -0.40219,0.63175 -0.40219,0.63175 z"
       id="path14-1" />
    <text
       xml:space="preserve"
       style="font-style:normal;font-variant:normal;font-weight:bold;font-stretch:normal;font-size:7.0439px;font-family:Poppins;-inkscape-font-specification:'Poppins, Bold';font-variant-ligatures:normal;font-variant-caps:normal;font-variant-numeric:normal;font-variant-east-asian:normal;text-align:start;writing-mode:lr-tb;direction:ltr;text-anchor:start;fill:#b3b3b3;fill-opacity:1;stroke:none;stroke-width:0.0363923;stroke-dasharray:none;stroke-opacity:1"
       x="235.81949"
       y="278.36398"
       id="text14"><tspan
         sodipodi:role="line"
         id="tspan14"
         style="font-style:normal;font-variant:normal;font-weight:bold;font-stretch:normal;font-size:7.0439px;font-family:Poppins;-inkscape-font-specification:'Poppins, Bold';font-variant-ligatures:normal;font-variant-caps:normal;font-variant-numeric:normal;font-variant-east-asian:normal;fill:#b3b3b3;stroke-width:0.0363923"
         x="235.81949"
         y="278.36398">Masak Batu</tspan></text>
  </g>
</svg>
