<?xml version="1.0" encoding="UTF-8" standalone="no"?>
<!-- Created with Inkscape (http://www.inkscape.org/) -->

<svg
   width="1080"
   height="1080"
   viewBox="0 0 285.74999 285.75"
   version="1.1"
   id="svg1"
   inkscape:version="1.4 (86a8ad7, 2024-10-11)"
   sodipodi:docname="dipindip.svg"
   xmlns:inkscape="http://www.inkscape.org/namespaces/inkscape"
   xmlns:sodipodi="http://sodipodi.sourceforge.net/DTD/sodipodi-0.dtd"
   xmlns="http://www.w3.org/2000/svg"
   xmlns:svg="http://www.w3.org/2000/svg">
  <sodipodi:namedview
     id="namedview1"
     pagecolor="#ffffff"
     bordercolor="#000000"
     borderopacity="0.25"
     inkscape:showpageshadow="2"
     inkscape:pageopacity="0.0"
     inkscape:pagecheckerboard="0"
     inkscape:deskcolor="#d1d1d1"
     inkscape:document-units="mm"
     inkscape:zoom="0.3670368"
     inkscape:cx="1099.3448"
     inkscape:cy="897.73015"
     inkscape:window-width="1920"
     inkscape:window-height="974"
     inkscape:window-x="-11"
     inkscape:window-y="-11"
     inkscape:window-maximized="1"
     inkscape:current-layer="svg1"
     showgrid="false" />
  <defs
     id="defs1" />
  <rect
     style="fill:#f9f9f9;fill-opacity:1;stroke:none;stroke-width:5.29167;stroke-dasharray:none;stroke-opacity:1"
     id="rect229"
     width="286.08981"
     height="286.08981"
     x="-0.16990662"
     y="-0.16990662"
     inkscape:export-filename="dipindip1.png"
     inkscape:export-xdpi="266.34991"
     inkscape:export-ydpi="266.34991" />
  <g
     inkscape:label="Layer 1"
     inkscape:groupmode="layer"
     id="layer1" />
  <g
     id="g127"
     transform="translate(-628.34694,-1.2122449)">
    <path
       style="fill:#000000;stroke:#000000;stroke-width:0.264583;stroke-dasharray:none;stroke-opacity:1"
       d="m 22.628571,41.216325 c 0,214.971425 0,213.355105 0,213.355105"
       id="path114" />
    <path
       style="fill:#000000;stroke:#000000;stroke-width:0.264583;stroke-dasharray:none;stroke-opacity:1"
       d="m 235.17551,41.216325 c 0,214.971425 0,213.355105 0,213.355105"
       id="path115" />
    <path
       d="m 38.9783,41.2163 c 0,214.9717 0,213.3547 0,213.3547"
       style="fill:#000000;stroke:#000000;stroke-width:0.264583;stroke-dasharray:none;stroke-opacity:1"
       id="path116" />
    <path
       d="m 55.3281,41.2163 c 0,214.9717 0,213.3547 0,213.3547"
       style="fill:#000000;stroke:#000000;stroke-width:0.264583;stroke-dasharray:none;stroke-opacity:1"
       id="path117" />
    <path
       d="m 71.6779,41.2163 c 0,214.9717 0,213.3547 0,213.3547"
       style="fill:#000000;stroke:#000000;stroke-width:0.264583;stroke-dasharray:none;stroke-opacity:1"
       id="path118" />
    <path
       d="m 88.0276,41.2163 c 0,214.9717 0,213.3547 0,213.3547"
       style="fill:#000000;stroke:#000000;stroke-width:0.264583;stroke-dasharray:none;stroke-opacity:1"
       id="path119" />
    <path
       d="m 104.377,41.2163 c 0,214.9717 0,213.3547 0,213.3547"
       style="fill:#000000;stroke:#000000;stroke-width:0.264583;stroke-dasharray:none;stroke-opacity:1"
       id="path120" />
    <path
       d="m 120.727,41.2163 c 0,214.9717 0,213.3547 0,213.3547"
       style="fill:#000000;stroke:#000000;stroke-width:0.264583;stroke-dasharray:none;stroke-opacity:1"
       id="path121" />
    <path
       d="m 137.077,41.2163 c 0,214.9717 0,213.3547 0,213.3547"
       style="fill:#000000;stroke:#000000;stroke-width:0.264583;stroke-dasharray:none;stroke-opacity:1"
       id="path122" />
    <path
       d="m 153.427,41.2163 c 0,214.9717 0,213.3547 0,213.3547"
       style="fill:#000000;stroke:#000000;stroke-width:0.264583;stroke-dasharray:none;stroke-opacity:1"
       id="path123" />
    <path
       d="m 169.776,41.2163 c 0,214.9717 0,213.3547 0,213.3547"
       style="fill:#000000;stroke:#000000;stroke-width:0.264583;stroke-dasharray:none;stroke-opacity:1"
       id="path124" />
    <path
       d="m 186.126,41.2163 c 0,214.9717 0,213.3547 0,213.3547"
       style="fill:#000000;stroke:#000000;stroke-width:0.264583;stroke-dasharray:none;stroke-opacity:1"
       id="path125" />
    <path
       d="m 202.476,41.2163 c 0,214.9717 0,213.3547 0,213.3547"
       style="fill:#000000;stroke:#000000;stroke-width:0.264583;stroke-dasharray:none;stroke-opacity:1"
       id="path126" />
    <path
       d="m 218.826,41.2163 c 0,214.9717 0,213.3547 0,213.3547"
       style="fill:#000000;stroke:#000000;stroke-width:0.264583;stroke-dasharray:none;stroke-opacity:1"
       id="path127" />
  </g>
  <g
     id="g141"
     transform="rotate(90,-184.66531,-166.88555)">
    <path
       style="fill:#000000;stroke:#000000;stroke-width:0.264583;stroke-dasharray:none;stroke-opacity:1"
       d="m 22.628571,41.216325 c 0,214.971425 0,213.355105 0,213.355105"
       id="path128" />
    <path
       style="fill:#000000;stroke:#000000;stroke-width:0.264583;stroke-dasharray:none;stroke-opacity:1"
       d="m 235.17551,41.216325 c 0,214.971425 0,213.355105 0,213.355105"
       id="path129" />
    <path
       d="m 38.9783,41.2163 c 0,214.9717 0,213.3547 0,213.3547"
       style="fill:#000000;stroke:#000000;stroke-width:0.264583;stroke-dasharray:none;stroke-opacity:1"
       id="path130" />
    <path
       d="m 55.3281,41.2163 c 0,214.9717 0,213.3547 0,213.3547"
       style="fill:#000000;stroke:#000000;stroke-width:0.264583;stroke-dasharray:none;stroke-opacity:1"
       id="path131" />
    <path
       d="m 71.6779,41.2163 c 0,214.9717 0,213.3547 0,213.3547"
       style="fill:#000000;stroke:#000000;stroke-width:0.264583;stroke-dasharray:none;stroke-opacity:1"
       id="path132" />
    <path
       d="m 88.0276,41.2163 c 0,214.9717 0,213.3547 0,213.3547"
       style="fill:#000000;stroke:#000000;stroke-width:0.264583;stroke-dasharray:none;stroke-opacity:1"
       id="path133" />
    <path
       d="m 104.377,41.2163 c 0,214.9717 0,213.3547 0,213.3547"
       style="fill:#000000;stroke:#000000;stroke-width:0.264583;stroke-dasharray:none;stroke-opacity:1"
       id="path134" />
    <path
       d="m 120.727,41.2163 c 0,214.9717 0,213.3547 0,213.3547"
       style="fill:#000000;stroke:#000000;stroke-width:0.264583;stroke-dasharray:none;stroke-opacity:1"
       id="path135" />
    <path
       d="m 137.077,41.2163 c 0,214.9717 0,213.3547 0,213.3547"
       style="fill:#000000;stroke:#000000;stroke-width:0.264583;stroke-dasharray:none;stroke-opacity:1"
       id="path136" />
    <path
       d="m 153.427,41.2163 c 0,214.9717 0,213.3547 0,213.3547"
       style="fill:#000000;stroke:#000000;stroke-width:0.264583;stroke-dasharray:none;stroke-opacity:1"
       id="path137" />
    <path
       d="m 169.776,41.2163 c 0,214.9717 0,213.3547 0,213.3547"
       style="fill:#000000;stroke:#000000;stroke-width:0.264583;stroke-dasharray:none;stroke-opacity:1"
       id="path138" />
    <path
       d="m 186.126,41.2163 c 0,214.9717 0,213.3547 0,213.3547"
       style="fill:#000000;stroke:#000000;stroke-width:0.264583;stroke-dasharray:none;stroke-opacity:1"
       id="path139" />
    <path
       d="m 202.476,41.2163 c 0,214.9717 0,213.3547 0,213.3547"
       style="fill:#000000;stroke:#000000;stroke-width:0.264583;stroke-dasharray:none;stroke-opacity:1"
       id="path140" />
    <path
       d="m 218.826,41.2163 c 0,214.9717 0,213.3547 0,213.3547"
       style="fill:#000000;stroke:#000000;stroke-width:0.264583;stroke-dasharray:none;stroke-opacity:1"
       id="path141" />
  </g>
  <path
     style="fill:#999999;fill-opacity:1;stroke:none;stroke-width:0.0467991;stroke-dasharray:none;stroke-opacity:1"
     d="m 265.11514,253.49042 c -1.46491,-0.66587 -4.5279,2.39713 -0.39952,3.52911 4.12839,1.13197 -0.59928,3.46251 -0.59928,3.46251 0,0 8.52312,0.93222 1.46491,9.05582 -7.05821,8.1236 -11.91905,-0.26635 -12.98444,-0.26635 -2.19737,-3.39593 -6.12599,0.99881 -2.19737,-3.39593 3.92863,-4.39473 5.26037,-3.39593 5.26037,-3.39593 0,0 -6.45893,-4.32815 -0.93222,-5.12719 5.52671,-0.79904 1.06539,-2.06419 4.0618,-3.39593 2.99641,-1.33174 3.063,-4.46132 3.063,-4.46132 z"
     id="path1"
     inkscape:export-filename="pcxxZCzczcczcath1.png"
     inkscape:export-xdpi="598.29858"
     inkscape:export-ydpi="598.29858" />
  <path
     style="fill:#b3b3b3;fill-opacity:1;stroke:none;stroke-width:0.0302408;stroke-dasharray:none;stroke-opacity:1"
     d="m 262.59081,256.60519 c -0.83458,-0.48802 -2.57962,1.75686 -0.22761,2.5865 2.35202,0.82963 -0.34142,2.53769 -0.34142,2.53769 0,0 4.85577,0.68322 0.83459,6.63704 -4.02119,5.95382 -6.7905,-0.19521 -7.39747,-0.19521 -1.25188,-2.48889 -3.49009,0.73203 -1.25188,-2.48889 2.23821,-3.22092 2.99692,-2.48889 2.99692,-2.48889 0,0 -3.67977,-3.17211 -0.5311,-3.75774 3.14867,-0.58562 0.60697,-1.51285 2.31408,-2.48889 1.7071,-0.97603 1.74504,-3.26972 1.74504,-3.26972 z"
     id="path2-8" />
  <path
     style="fill:#cccccc;fill-opacity:1;stroke:none;stroke-width:0.0169328;stroke-dasharray:none;stroke-opacity:1"
     d="m 261.07853,259.1201 c -0.46731,-0.27326 -1.44442,0.98372 -0.12745,1.44826 1.31696,0.46453 -0.19117,1.42093 -0.19117,1.42093 0,0 2.71889,0.38256 0.4673,3.71628 -2.25158,3.33372 -3.8022,-0.10931 -4.14206,-0.10931 -0.70097,-1.3936 -1.95421,0.40989 -0.70097,-1.3936 1.25324,-1.80349 1.67807,-1.39361 1.67807,-1.39361 0,0 -2.06041,-1.77616 -0.29738,-2.10407 1.76303,-0.3279 0.33986,-0.84709 1.29573,-1.3936 0.95585,-0.54652 0.9771,-1.83082 0.9771,-1.83082 z"
     id="path3-2" />
  <path
     style="fill:#999999;fill-opacity:1;stroke:none;stroke-width:0.0351201;stroke-dasharray:none;stroke-opacity:1"
     d="m 267.77003,256.83942 c 0,0 -1.31248,-2.59689 -0.3375,-2.92982 0.97499,-0.33294 1.76248,0.33293 1.31248,1.39832 -0.44999,1.06539 -0.97498,1.5315 -0.97498,1.5315 z"
     id="path5" />
  <path
     style="fill:#999999;fill-opacity:1;stroke:none;stroke-width:0.0344653;stroke-dasharray:none;stroke-opacity:1"
     d="m 261.8598,244.84986 c 0,0 -1.264,-2.59689 -0.32503,-2.92982 0.93897,-0.33294 1.69737,0.33293 1.264,1.39832 -0.43337,1.06539 -0.93897,1.5315 -0.93897,1.5315 z"
     id="path6" />
  <path
     style="fill:#999999;fill-opacity:1;stroke:none;stroke-width:0.0292651;stroke-dasharray:none;stroke-opacity:1"
     d="m 265.37908,249.77729 c 0,0 1.45737,-1.62392 0.37476,-1.83212 -1.08262,-0.20819 -1.95704,0.2082 -1.45737,0.87442 0.49966,0.66623 1.08261,0.9577 1.08261,0.9577 z"
     id="path7-4" />
  <path
     style="fill:#999999;fill-opacity:1;stroke:none;stroke-width:0.0370148;stroke-dasharray:none;stroke-opacity:1"
     d="m 249.19829,261.22631 c 0,0 -1.45791,-2.59689 -0.37489,-2.92982 1.08303,-0.33294 1.95778,0.33293 1.45792,1.39832 -0.49986,1.06539 -1.08303,1.5315 -1.08303,1.5315 z"
     id="path8-5" />
  <path
     style="fill:#999999;fill-opacity:1;stroke:none;stroke-width:0.0419713;stroke-dasharray:none;stroke-opacity:1"
     d="m 256.84748,252.14879 c 0,0 -1.3852,-3.51421 -0.3562,-3.96474 1.029,-0.45055 1.86012,0.45053 1.3852,1.89226 -0.47492,1.44173 -1.029,2.07248 -1.029,2.07248 z"
     id="path9-5" />
  <path
     style="fill:#cccccc;fill-opacity:1;stroke:none;stroke-width:0.0120317;stroke-dasharray:none;stroke-opacity:1"
     d="m 249.35089,260.20847 c 0,0 -0.4739,-0.84412 -0.12186,-0.95234 0.35204,-0.10823 0.63638,0.10822 0.4739,0.45452 -0.16248,0.34631 -0.35204,0.49782 -0.35204,0.49782 z"
     id="path10" />
  <path
     style="fill:#cccccc;fill-opacity:1;stroke:none;stroke-width:0.0141548;stroke-dasharray:none;stroke-opacity:1"
     d="m 256.98984,250.7963 c 0,0 -0.46716,-1.18516 -0.12013,-1.33711 0.34704,-0.15194 0.62733,0.15195 0.46716,0.63817 -0.16017,0.48622 -0.34703,0.69894 -0.34703,0.69894 z"
     id="path11-1" />
  <path
     style="fill:#cccccc;fill-opacity:1;stroke:none;stroke-width:0.0134825;stroke-dasharray:none;stroke-opacity:1"
     d="m 261.97913,243.93175 c 0,0 -0.49446,-1.01587 -0.12715,-1.14611 0.36732,-0.13024 0.664,0.13024 0.49447,0.54701 -0.16953,0.41677 -0.36732,0.5991 -0.36732,0.5991 z"
     id="path12" />
  <path
     style="fill:#cccccc;fill-opacity:1;stroke:none;stroke-width:0.0129418;stroke-dasharray:none;stroke-opacity:1"
     d="m 265.25303,249.2513 c 0,0 0.64449,-0.71815 0.16572,-0.81022 -0.47876,-0.0921 -0.86545,0.0921 -0.64449,0.3867 0.22097,0.29462 0.47877,0.42352 0.47877,0.42352 z"
     id="path13-7" />
  <path
     style="fill:#cccccc;fill-opacity:1;stroke:none;stroke-width:0.0144872;stroke-dasharray:none;stroke-opacity:1"
     d="m 267.8896,255.95346 c 0,0 -0.5414,-1.07123 -0.13922,-1.20857 0.40219,-0.13734 0.72703,0.13734 0.54141,0.57682 -0.18563,0.43948 -0.40219,0.63175 -0.40219,0.63175 z"
     id="path14-1" />
  <text
     xml:space="preserve"
     style="font-style:normal;font-variant:normal;font-weight:bold;font-stretch:normal;font-size:7.0439px;font-family:Poppins;-inkscape-font-specification:'Poppins, Bold';font-variant-ligatures:normal;font-variant-caps:normal;font-variant-numeric:normal;font-variant-east-asian:normal;text-align:start;writing-mode:lr-tb;direction:ltr;text-anchor:start;fill:#b3b3b3;fill-opacity:1;stroke:none;stroke-width:0.0363923;stroke-dasharray:none;stroke-opacity:1"
     x="237.22501"
     y="280.16037"
     id="text14"><tspan
       sodipodi:role="line"
       id="tspan14"
       style="font-style:normal;font-variant:normal;font-weight:bold;font-stretch:normal;font-size:7.0439px;font-family:Poppins;-inkscape-font-specification:'Poppins, Bold';font-variant-ligatures:normal;font-variant-caps:normal;font-variant-numeric:normal;font-variant-east-asian:normal;fill:#b3b3b3;stroke-width:0.0363923"
       x="237.22501"
       y="280.16037">Masak Batu</tspan></text>
  <circle
     style="fill:none;stroke:#000000;stroke-width:3.37263;stroke-dasharray:none;stroke-opacity:1"
     id="path228"
     cx="142.875"
     cy="129.77078"
     r="74.300339" />
  <path
     d="m 142.59719,65.485867 c -1.86094,0.06558 -3.71817,0.21164 -5.56649,0.437769 -3.95153,0.331155 -7.86414,1.025653 -11.68824,2.074689 v 9.175774 2.960202 8.728031 11.688228 H 113.6546 v -11.688228 -2.85455 -8.833683 -4.804 c -2.76495,1.408005 -5.42481,3.013499 -7.95889,4.804 -1.27862,0.93148 -2.52257,1.909638 -3.72934,2.932495 -3.220639,2.627328 -6.180039,5.559508 -8.83701,8.755738 -0.988694,1.09325 -1.939658,2.22004 -2.851221,3.37839 -1.904325,2.6377 -3.606558,5.41555 -5.092152,8.309838 -1.877118,3.74071 -3.386053,7.65508 -4.505505,11.68786 -0.999745,3.51655 -1.698993,7.11166 -2.090207,10.74657 v 0.94167 11.68823 1.49691 c 0.377766,3.44411 1.03216,6.85223 1.956844,10.19132 1.076472,4.02785 2.540567,7.94196 4.371774,11.6875 1.546081,3.0938 3.338263,6.05837 5.359246,8.86508 0.765345,0.96364 1.558086,1.9052 2.377248,2.82352 2.778224,3.41287 5.898104,6.53276 9.310983,9.31098 0.9182,0.81916 1.85963,1.6119 2.82314,2.37725 2.80672,2.02098 5.77129,3.81316 8.86509,5.35925 v -5.35925 -8.27844 -3.40979 -11.6886 h 11.68786 v 11.6886 9.28365 2.40458 9.73102 c 3.34102,0.92512 6.75113,1.57964 10.19724,1.95721 h 1.491 11.68823 0.93538 c 3.63704,-0.39098 7.23427,-1.09036 10.75285,-2.09057 v -9.59766 -2.54903 -9.1392 -11.6886 h 11.68787 v 11.6886 3.03297 8.65526 5.09216 c 2.89415,-1.48562 5.67189,-3.18785 8.30947,-5.09216 1.15848,-0.91168 2.28539,-1.86276 3.37876,-2.85159 3.1962,-2.65686 6.12839,-5.61613 8.75574,-8.83664 1.02286,-1.20689 2.00102,-2.45097 2.93249,-3.72971 1.7905,-2.53408 3.396,-5.19394 4.804,-7.95889 1.83121,-3.74554 3.2953,-7.65965 4.37178,-11.6875 1.04891,-3.8241 1.74328,-7.73672 2.07432,-11.68823 0.22625,-1.84831 0.37243,-3.70555 0.43813,-5.5665 -0.006,-2.0443 -0.10878,-4.08719 -0.30847,-6.12173 -0.37538,-3.95578 -1.11515,-7.86847 -2.20989,-11.68824 -1.16052,-4.03741 -2.71232,-7.95192 -4.63333,-11.68786 -1.33982,-2.606098 -2.8555,-5.117958 -4.53654,-7.518158 -1.00176,-1.43245 -2.06128,-2.82361 -3.17595,-4.17007 -2.56612,-3.09634 -5.41594,-5.94616 -8.51228,-8.512288 -1.34646,-1.114662 -2.73763,-2.174183 -4.17007,-3.175945 -2.4002,-1.681042 -4.91206,-3.196725 -7.51816,-4.536536 v 4.536536 8.992173 2.69606 11.688228 H 160.40716 V 88.862332 80.260275 77.174099 68.004236 c -3.81977,-1.094744 -7.73245,-1.834516 -11.68823,-2.209899 -2.03455,-0.199685 -4.07743,-0.302625 -6.12174,-0.30847 z m 0.009,11.679736 c 0.0974,0.0026 0.19482,0.0054 0.29221,0.0085 h 5.82102 v 0.346891 11.341348 11.688228 11.68786 11.68823 H 137.0307 V 112.23842 100.55056 88.862332 77.653243 77.174099 h 5.47783 z m -40.63982,19.074509 v 4.310448 11.68786 11.68824 h -11.688231 -0.01958 c 0.0064,-0.0746 0.0129,-0.14926 0.01958,-0.22387 0.424862,-3.90466 1.283406,-7.74983 2.559745,-11.46437 1.541067,-4.13566 3.593787,-8.06214 6.110287,-11.68786 0.93391,-1.486008 1.941229,-2.924608 3.018199,-4.310448 z m 81.81689,0.65942 c 0.9514,1.17782 1.85178,2.39596 2.69865,3.651028 2.44645,3.63605 4.43145,7.56211 5.90931,11.68786 1.35443,3.7794 2.27406,7.70074 2.74114,11.68824 h -11.3491 V 112.23842 100.55056 Z M 113.6546,112.23842 h 11.68786 v 11.68824 11.68823 11.68823 H 113.6546 v -11.68823 -11.68823 z m 46.75256,0 h 11.68787 v 11.68824 11.68823 11.68823 h -11.68787 v -11.68823 -11.68823 z m -70.197365,23.37647 h 0.06834 11.688235 v 11.68823 11.6875 4.86643 c -1.22615,-1.55701 -2.363809,-3.18172 -3.407579,-4.86643 -2.43266,-3.63795 -4.404333,-7.5638 -5.86979,-11.6875 -1.18654,-3.54093 -1.99467,-7.19757 -2.410866,-10.90874 -0.02471,-0.25966 -0.04748,-0.51949 -0.06834,-0.77949 z m 46.820905,0 h 11.68823 v 11.68823 11.6875 11.6886 11.68823 h 0.33285 c -0.11092,0.0101 -0.22187,0.0198 -0.33285,0.0292 -2.02568,0.29637 -4.06687,0.47485 -6.11324,0.53456 -1.86564,-0.0641 -3.72657,-0.22681 -5.57499,-0.48764 -0.29045,-0.023 -0.58071,-0.0483 -0.87074,-0.0761 h 0.87074 V 170.6792 158.9906 147.30311 Z m 46.75256,0 h 11.21832 c -0.38219,3.97723 -1.21391,7.89833 -2.47921,11.68823 -1.46546,4.1237 -3.43713,8.04955 -5.86979,11.6875 -0.89126,1.41051 -1.84877,2.77805 -2.86932,4.09802 v -4.09802 -11.6875 z"
     style="fill:#000000"
     id="path227" />
  <text
     xml:space="preserve"
     style="font-style:normal;font-variant:normal;font-weight:normal;font-stretch:normal;font-size:21.8471px;font-family:Bigdex;-inkscape-font-specification:'Bigdex, Normal';font-variant-ligatures:normal;font-variant-caps:normal;font-variant-numeric:normal;font-variant-east-asian:normal;text-align:start;writing-mode:lr-tb;direction:ltr;text-anchor:start;fill:#000000;fill-opacity:1;stroke:none;stroke-width:5.29167;stroke-dasharray:none;stroke-opacity:1"
     x="100.88385"
     y="231.76926"
     id="text229"><tspan
       sodipodi:role="line"
       id="tspan229"
       style="font-style:normal;font-variant:normal;font-weight:normal;font-stretch:normal;font-size:21.8471px;font-family:Bigdex;-inkscape-font-specification:'Bigdex, Normal';font-variant-ligatures:normal;font-variant-caps:normal;font-variant-numeric:normal;font-variant-east-asian:normal;stroke-width:5.29167"
       x="100.88385"
       y="231.76926">Dip In Dip</tspan></text>
  <path
     style="fill:#000000;fill-opacity:1;stroke:none;stroke-width:0.264583;stroke-opacity:1"
     d="m 79.13516,119.08504 c 0,0 -2.548636,12.61574 0.509727,24.21204 3.058364,11.5963 7.391046,-8.66536 7.391046,-8.66536 L 85.251887,123.354 Z"
     id="path2" />
</svg>
