<?xml version="1.0" encoding="UTF-8" standalone="no"?>
<!-- Created with Inkscape (http://www.inkscape.org/) -->

<svg
   width="210mm"
   height="210mm"
   viewBox="0 0 210 210"
   version="1.1"
   id="svg1"
   xml:space="preserve"
   inkscape:version="1.4 (86a8ad7, 2024-10-11)"
   sodipodi:docname="KEBUNPAKTANIO2.svg"
   inkscape:export-filename="KEBUNPAhikliuKTANIO2.png"
   inkscape:export-xdpi="409.72623"
   inkscape:export-ydpi="409.72623"
   xmlns:inkscape="http://www.inkscape.org/namespaces/inkscape"
   xmlns:sodipodi="http://sodipodi.sourceforge.net/DTD/sodipodi-0.dtd"
   xmlns="http://www.w3.org/2000/svg"
   xmlns:svg="http://www.w3.org/2000/svg"><sodipodi:namedview
     id="namedview1"
     pagecolor="#ffffff"
     bordercolor="#000000"
     borderopacity="0.25"
     inkscape:showpageshadow="2"
     inkscape:pageopacity="0.0"
     inkscape:pagecheckerboard="0"
     inkscape:deskcolor="#d1d1d1"
     inkscape:document-units="mm"
     inkscape:zoom="0.82127688"
     inkscape:cx="407.90141"
     inkscape:cy="393.89883"
     inkscape:window-width="1920"
     inkscape:window-height="974"
     inkscape:window-x="-11"
     inkscape:window-y="-11"
     inkscape:window-maximized="1"
     inkscape:current-layer="layer1"
     showgrid="false" /><defs
     id="defs1" /><g
     inkscape:label="Layer 1"
     inkscape:groupmode="layer"
     id="layer1"><rect
       style="fill:#f9f9f9;stroke-width:0.759"
       id="rect1"
       width="210.69325"
       height="210.69325"
       x="-0.34662628"
       y="-0.34662628"
       inkscape:export-filename="rrfhwefwefrhruyguygg1.png"
       inkscape:export-xdpi="409.72623"
       inkscape:export-ydpi="409.72623" /><g
       id="g16"
       transform="matrix(0.60146642,0,0,0.60146642,10.721847,44.156715)"><path
         id="path4"
         style="fill:#80ca28"
         d="m 58.220219,60.682084 c -0.01762,-0.0073 -0.0369,-0.0062 -0.05839,0.0021 -0.06668,0.02559 -0.113007,0.07194 -0.102837,0.103353 0.03029,0.09352 -0.379415,0.711068 -0.471805,0.711068 -0.04686,0 -0.06085,0.03957 -0.03101,0.08785 0.02984,0.04828 -0.007,0.111383 -0.08165,0.140043 -0.07468,0.02866 -0.11425,0.087 -0.08785,0.129708 0.02639,0.04271 -0.06183,0.182146 -0.19637,0.310058 -0.134575,0.12791 -0.199478,0.206447 -0.144178,0.174667 0.0553,-0.03178 -0.01636,0.158021 -0.159163,0.421679 -0.142803,0.263657 -0.298029,0.479558 -0.345199,0.479558 -0.04717,0 -0.06167,0.03888 -0.03204,0.08682 0.02963,0.04794 0.01019,0.08733 -0.04341,0.08733 -0.05363,0 -0.0753,0.03602 -0.04806,0.0801 0.02725,0.04408 -0.008,0.137669 -0.07803,0.207739 -0.07007,0.07007 -0.106868,0.147896 -0.08165,0.173116 0.06472,0.06472 -0.215647,0.584977 -0.315227,0.584977 -0.04521,0 -0.05964,0.05882 -0.03204,0.130742 0.0276,0.07192 0.0047,0.130741 -0.05116,0.130741 -0.05587,0 -0.07769,0.03939 -0.04806,0.08733 0.02964,0.04794 0.01361,0.08733 -0.03566,0.08733 -0.04932,0 -0.06863,0.05364 -0.04341,0.119373 0.02522,0.06573 -0.0089,0.173755 -0.07545,0.240295 -0.06653,0.06654 -0.102676,0.175159 -0.08062,0.241329 0.02408,0.07224 0.0012,0.09663 -0.05736,0.06046 -0.06206,-0.03835 -0.07853,-0.01119 -0.04548,0.07493 0.02856,0.0744 0.0081,0.135393 -0.04496,0.135393 -0.05307,0 -0.09148,0.02915 -0.08578,0.06511 0.0057,0.03596 8.18e-4,0.09478 -0.01085,0.130741 -0.04639,0.142941 -0.06554,0.247409 -0.07596,0.419096 -0.006,0.09871 -0.04645,0.157612 -0.08992,0.130742 -0.04347,-0.02687 -0.05702,0.03556 -0.02997,0.139009 0.03346,0.127948 0.01731,0.168607 -0.05064,0.126607 -0.06327,-0.0391 -0.08189,-0.01549 -0.05116,0.0646 0.0267,0.06956 0.006,0.152872 -0.04599,0.185002 -0.05201,0.03213 -0.07359,0.09201 -0.04806,0.133325 0.02554,0.04132 0.0079,0.09882 -0.03876,0.127641 -0.04667,0.02882 -0.06391,0.106035 -0.03876,0.171565 0.02515,0.06553 0.0057,0.144307 -0.04341,0.174667 -0.0491,0.03036 -0.06732,0.112554 -0.04031,0.182934 0.02701,0.07038 0.01525,0.127943 -0.02584,0.128158 -0.04109,2.15e-4 -0.08207,0.146866 -0.09147,0.325561 -0.0094,0.178694 -0.05867,0.338574 -0.109554,0.355534 -0.05088,0.01696 -0.06934,0.06857 -0.04082,0.114722 0.02852,0.04614 0.02351,0.150944 -0.01137,0.232544 -0.03488,0.08161 -0.07505,0.207133 -0.08888,0.279053 -0.01383,0.07192 -0.05202,0.26783 -0.08527,0.435632 -0.03325,0.167801 -0.05624,0.430292 -0.05064,0.583427 0.0055,0.153134 -0.02425,0.299661 -0.06615,0.325561 -0.0419,0.02589 -0.05518,0.230033 -0.02997,0.453719 0.02594,0.230122 0.01168,0.385995 -0.03256,0.358635 -0.04465,-0.02762 -0.0651,0.265694 -0.04754,0.684196 0.01691,0.402961 -0.0025,0.732754 -0.04341,0.732772 -0.04088,1.7e-5 -0.08239,0.195933 -0.0925,0.435632 -0.01125,0.266783 0.01801,0.436149 0.07597,0.436149 0.06381,0 0.08207,0.242291 0.05581,0.74259 -0.0236,0.449586 -0.0084,0.699053 0.03876,0.632003 0.04825,-0.06859 0.06377,0.06337 0.04082,0.346749 -0.02038,0.251702 -0.0032,0.457853 0.03772,0.457853 0.04087,0 0.07293,0.127371 0.07183,0.283187 -0.0029,0.390126 0.04499,0.706964 0.12609,0.838192 0.03752,0.0607 0.0449,0.133904 0.01654,0.162264 -0.02835,0.02836 -0.0084,0.103701 0.04444,0.167431 0.05286,0.06373 0.0733,0.175011 0.04547,0.247531 -0.02783,0.07252 -0.0076,0.131774 0.04444,0.131774 0.05208,0 0.07366,0.07872 0.04857,0.174667 -0.02679,0.102455 -0.0098,0.152183 0.04082,0.120923 0.04737,-0.02928 0.07651,0.0199 0.06511,0.109037 -0.0114,0.08914 0.02535,0.27341 0.08113,0.409277 0.05578,0.135868 0.08039,0.280301 0.05529,0.320911 -0.0251,0.0406 -0.0051,0.09859 0.04444,0.129191 0.04946,0.0306 0.06737,0.09231 0.03979,0.136942 -0.02758,0.04463 -0.0042,0.08113 0.05168,0.08113 0.05586,0 0.07928,0.05883 0.05168,0.130742 -0.02759,0.07192 -0.0082,0.130741 0.04341,0.130741 0.05155,0 0.07041,0.06098 0.04186,0.135392 -0.02977,0.07752 -0.0153,0.112189 0.03411,0.08165 0.0474,-0.02929 0.09115,0.02789 0.09715,0.126608 0.01042,0.171687 0.02957,0.276154 0.07596,0.419095 0.01167,0.03595 0.01655,0.09478 0.01085,0.130742 -0.0057,0.03596 0.03088,0.06511 0.08165,0.06511 0.05077,0 0.06839,0.03939 0.03876,0.08733 -0.02964,0.04794 -0.01019,0.08733 0.04341,0.08733 0.05361,0 0.07304,0.03888 0.04341,0.08682 -0.02964,0.04794 -0.01705,0.08733 0.02791,0.08733 0.08949,0 0.306441,0.469712 0.306441,0.663525 0,0.06666 0.03525,0.120923 0.07803,0.120923 0.04278,0 0.0534,0.03939 0.02377,0.08733 -0.02963,0.04794 -0.01337,0.08733 0.03617,0.08733 0.113117,0 0.368486,0.481591 0.294556,0.555521 -0.03005,0.03005 -0.0066,0.05426 0.05219,0.05426 0.05877,0 0.08234,0.03939 0.05271,0.08733 -0.02963,0.04794 -0.0097,0.08733 0.04393,0.08733 0.05361,0 0.07304,0.03888 0.04341,0.08682 -0.02963,0.04794 -0.01176,0.08733 0.03979,0.08733 0.05155,0 0.161816,0.147325 0.244946,0.327112 0.08313,0.179789 0.209717,0.37887 0.281637,0.44235 0.116226,0.1026 0.116226,0.109088 0,0.05788 -0.07191,-0.03169 -0.03253,0.02298 0.08733,0.121956 0.119855,0.09898 0.178681,0.181652 0.130741,0.183452 -0.04795,0.0018 -0.02799,0.04032 0.04393,0.08578 0.07191,0.04546 0.131942,0.113702 0.133842,0.151412 0.0019,0.03771 0.129812,0.199815 0.283704,0.360701 0.153893,0.160886 0.279569,0.32852 0.279569,0.37207 0,0.04355 0.127371,0.199515 0.283187,0.346749 0.155847,0.147232 0.224366,0.238402 0.152446,0.202572 -0.07191,-0.03582 0.05577,0.10161 0.283703,0.305408 0.227932,0.203799 0.39392,0.40352 0.36897,0.4439 -0.0422,0.06829 0.109715,0.211974 0.227376,0.214974 0.02859,7.34e-4 0.303285,0.234666 0.610299,0.519865 0.307014,0.285198 0.503489,0.484801 0.436149,0.443901 -0.08388,-0.05096 -0.102648,-0.04202 -0.05943,0.02791 0.03469,0.0561 0.09191,0.08429 0.127124,0.06253 0.0352,-0.02176 0.218514,0.103993 0.407727,0.27957 0.189213,0.175576 0.375185,0.320227 0.412895,0.321427 0.03771,0.0012 0.105435,0.06141 0.150895,0.133325 0.04547,0.07191 0.08483,0.09135 0.08733,0.04341 0.0025,-0.04794 0.105531,0.03032 0.228927,0.174149 0.123395,0.143834 0.198395,0.213503 0.166915,0.154513 -0.03438,-0.06442 0.04615,-0.04784 0.201538,0.04134 0.142305,0.08167 0.235856,0.184783 0.208256,0.229443 -0.0276,0.04466 -0.0061,0.05432 0.04754,0.02119 0.0536,-0.03313 0.170809,0.0094 0.260449,0.09508 0.08964,0.08565 0.218301,0.168655 0.285771,0.184485 0.06747,0.01583 0.151905,0.07465 0.187585,0.130741 0.03567,0.05609 0.06541,0.07181 0.06615,0.03462 0.002,-0.09914 0.523999,0.187624 0.523999,0.287837 0,0.04671 0.02967,0.07537 0.06563,0.06356 0.125371,-0.04117 0.80038,0.221946 0.75551,0.294556 -0.02487,0.04024 0.02212,0.04759 0.104386,0.01602 0.1008,-0.03869 0.128877,-0.02465 0.08682,0.04341 -0.04078,0.06598 -0.01553,0.08301 0.07286,0.04909 0.0744,-0.02856 0.135393,-0.01651 0.135393,0.02635 0,0.04287 0.08454,0.08418 0.188102,0.09198 0.103559,0.0078 0.211489,0.04536 0.239779,0.08372 0.02828,0.03835 0.09055,0.07223 0.138492,0.07493 0.207061,0.01155 0.566891,0.150855 0.566891,0.219625 0,0.04124 0.05883,0.0524 0.130741,0.0248 0.07191,-0.0276 0.130742,-0.01496 0.130742,0.02791 0,0.04287 0.07657,0.08343 0.170015,0.09043 0.312541,0.02354 1.224731,0.308019 1.224731,0.381889 0,0.04012 0.05489,0.05209 0.121957,0.02635 0.06706,-0.02574 0.14689,-0.0067 0.17725,0.04237 0.03036,0.04909 0.10862,0.06856 0.17415,0.04341 0.06553,-0.02515 0.145637,-0.0029 0.177767,0.04909 0.03213,0.05201 0.09201,0.0736 0.133325,0.04806 0.04132,-0.02554 0.09773,-0.01011 0.125057,0.03411 0.02733,0.04424 0.127919,0.05968 0.223759,0.03462 0.09584,-0.02506 0.174149,-0.0056 0.174149,0.04341 0,0.04902 0.08472,0.06734 0.188102,0.04031 0.127827,-0.03343 0.168081,-0.0173 0.126091,0.05064 -0.04014,0.06494 -0.01373,0.08156 0.07493,0.04754 0.07502,-0.02878 0.194317,-0.0039 0.265617,0.05529 0.0713,0.05917 0.129707,0.07509 0.129707,0.03566 0,-0.03943 0.0444,-0.02743 0.09819,0.02635 0.05378,0.05379 0.151487,0.07703 0.217557,0.05168 0.06607,-0.02535 0.120407,-0.0062 0.120407,0.04237 0,0.04862 0.07385,0.06862 0.164331,0.04496 0.09048,-0.02366 0.189738,-0.002 0.220658,0.04806 0.03092,0.05005 0.114105,0.06887 0.184485,0.04186 0.07038,-0.02701 0.128047,-0.01525 0.128157,0.02584 1.09e-4,0.04108 0.125474,0.07915 0.279053,0.08475 0.153579,0.0056 0.293365,0.05224 0.310575,0.103869 0.01721,0.05165 0.08383,0.07416 0.147795,0.04961 0.06397,-0.02455 0.141206,-0.0047 0.171566,0.04444 0.03036,0.0491 0.112554,0.06732 0.182934,0.04031 0.07038,-0.027 0.128158,-0.0032 0.128158,0.05271 0,0.05587 0.03888,0.07717 0.08682,0.04754 0.04794,-0.02963 0.136441,-0.02305 0.196371,0.01447 0.05993,0.03752 0.14843,0.07026 0.19637,0.07286 0.239845,0.01316 0.653707,0.153432 0.653707,0.221692 0,0.04263 0.05883,0.05499 0.130741,0.02739 0.07192,-0.02759 0.130742,-0.0042 0.130742,0.05168 0,0.05587 0.03888,0.07717 0.08682,0.04754 0.04794,-0.02963 0.08733,-0.0097 0.08733,0.04392 0,0.05364 0.03687,0.07471 0.08165,0.04703 0.104789,-0.06476 0.804339,0.203106 0.929659,0.356051 0.05264,0.06425 0.121246,0.09168 0.152446,0.06046 0.0313,-0.03122 0.05684,-0.0086 0.05684,0.05013 0,0.05881 0.036,0.0846 0.0801,0.05736 0.04408,-0.02724 0.133021,-4.25e-4 0.197921,0.05994 0.06494,0.06037 0.176213,0.121805 0.247013,0.136425 0.07077,0.01462 0.173844,0.08566 0.229444,0.15813 0.05555,0.07247 0.124145,0.129291 0.152445,0.126091 0.1721,-0.01939 0.2499,0.02655 0.54622,0.321427 0.18062,0.179785 0.271005,0.249893 0.200505,0.156063 -0.08831,-0.117573 -0.02856,-0.09555 0.192236,0.0708 0.17622,0.132756 0.38387,0.338401 0.46147,0.456819 0.07759,0.11842 0.172457,0.195586 0.211357,0.171566 0.03887,-0.02402 0.16473,0.06273 0.27957,0.192753 l 0.208772,0.236162 -0.218074,-0.173633 -0.217558,-0.173633 0.164331,0.193787 c 0.09031,0.106746 0.192143,0.177202 0.226343,0.156062 0.0342,-0.02114 0.176046,0.08595 0.315226,0.238229 0.144,0.157609 0.177748,0.225356 0.07855,0.157096 -0.09589,-0.06595 0.0023,0.04571 0.218075,0.248564 0.21571,0.202857 0.333383,0.343829 0.261483,0.313159 -0.07191,-0.03067 -0.03235,0.03542 0.08785,0.146761 0.3349,0.310206 0.588896,0.636402 0.435116,0.558622 -0.07191,-0.03637 -0.04908,0.006 0.05116,0.09405 0.2399,0.210748 0.572111,0.771497 0.499711,0.843877 -0.0313,0.03133 -0.0092,0.05684 0.04961,0.05684 0.059,0 0.08283,0.03939 0.05323,0.08733 -0.0296,0.04794 -0.01041,0.08733 0.04289,0.08733 0.09483,0 0.31852,0.502978 0.28112,0.632003 -0.0105,0.03596 0.02258,0.06511 0.07338,0.06511 0.0507,0 0.06784,0.03939 0.03824,0.08733 -0.0296,0.04794 -0.0088,0.08733 0.04599,0.08733 0.0545,0 0.08336,0.0485 0.06356,0.108004 -0.01985,0.0595 0.01825,0.162387 0.08475,0.228927 0.0666,0.06654 0.101514,0.172487 0.07751,0.235127 -0.0241,0.06264 -0.0054,0.126857 0.04186,0.142627 0.04735,0.01577 0.10129,0.145727 0.11989,0.288863 0.0187,0.14314 0.04113,0.27986 0.05013,0.30386 0.009,0.024 0.0122,0.073 0.0062,0.10904 -0.0057,0.036 0.03332,0.0651 0.08682,0.0651 0.05358,0 0.07773,0.0768 0.05323,0.17053 -0.0245,0.0936 -0.0042,0.18359 0.04496,0.19999 0.0492,0.0164 0.09374,0.15545 0.09974,0.30903 0.0056,0.15358 0.04365,0.27894 0.08475,0.27905 0.0411,1e-4 0.05232,0.0578 0.02532,0.12816 -0.0271,0.0704 -0.0081,0.15358 0.04186,0.18448 0.0499,0.0309 0.07176,0.13016 0.04806,0.22066 -0.0236,0.0905 -0.003,0.16433 0.04599,0.16433 0.0486,0 0.06902,0.0788 0.04393,0.17467 -0.0251,0.0958 -0.0062,0.17415 0.04237,0.17415 0.0482,0 0.06777,0.0543 0.04237,0.1204 -0.0254,0.0661 -0.0063,0.15956 0.04238,0.20826 0.04865,0.0487 0.09432,0.24575 0.102319,0.4377 0.0075,0.19196 0.0462,0.32877 0.0863,0.30437 0.0401,-0.0244 0.06481,0.0485 0.05581,0.16175 -0.0092,0.11325 -0.0074,0.2256 0.0041,0.2496 0.0114,0.024 0.03424,0.14163 0.05064,0.26148 0.04816,0.35261 0.09371,0.55725 0.157613,0.7059 0.0328,0.0768 0.05186,0.17497 0.04186,0.21807 -0.01,0.0431 0.01209,0.14743 0.04909,0.23203 0.037,0.0846 0.04712,0.23191 0.02222,0.32711 -0.0284,0.1089 -0.01118,0.15166 0.04703,0.11576 0.0623,-0.0385 0.07582,0.048 0.04082,0.26355 -0.0359,0.22141 -0.02259,0.30228 0.04341,0.26148 0.066,-0.0408 0.07994,0.0392 0.04444,0.25787 -0.0283,0.17438 -0.01634,0.33895 0.02636,0.36535 0.0427,0.0264 0.07538,0.15446 0.07338,0.28474 -0.0023,0.13028 0.02346,0.39371 0.05736,0.58549 0.0339,0.19177 0.07227,0.46647 0.08527,0.6103 0.0129,0.14383 0.05212,0.33046 0.08682,0.41496 0.0349,0.0845 0.0458,0.27068 0.0248,0.41393 -0.021,0.14324 -5.24e-4,0.26045 0.04548,0.26045 0.0472,0 0.06309,0.15202 0.03669,0.34881 -0.0285,0.21208 -0.01139,0.34882 0.04341,0.34882 0.0572,0 0.06951,0.1529 0.03411,0.42013 -0.0306,0.23121 -0.02565,0.45029 0.01085,0.48679 0.0364,0.0365 0.07045,0.24967 0.07545,0.47336 0.0052,0.22369 0.03883,0.66143 0.07493,0.97306 0.12358,1.06777 0.167599,1.70087 0.172599,2.45464 0.0026,0.42973 0.03852,0.73338 0.08372,0.70538 0.0469,-0.029 0.05917,0.33948 0.02997,0.90175 -0.0289,0.55591 -0.01828,0.87811 0.02532,0.77618 0.0754,-0.17667 0.08702,0.5946 0.09302,6.01462 0.0053,4.97092 -0.01898,6.63168 -0.09508,6.45077 -0.0471,-0.11186 -0.06843,0.0673 -0.05943,0.50023 0.0078,0.37109 0.03936,0.67545 0.06976,0.67593 0.05036,7.9e-4 0.159838,0.2657 0.198438,0.48007 0.0086,0.048 0.06389,0.077 0.122989,0.0646 0.05912,-0.0124 0.129914,0.0364 0.157614,0.10852 0.02766,0.0721 0.08526,0.10918 0.128157,0.0827 0.0429,-0.0265 0.07802,-0.0166 0.07803,0.0222 v 5.2e-4 c 10e-6,0.0387 0.176484,0.0713 0.392224,0.0723 0.21573,10e-4 0.392224,-0.031 0.392224,-0.0708 0,-0.0398 0.03892,-0.0482 0.08682,-0.0186 0.048,0.0296 0.08733,0.0102 0.08733,-0.0434 0,-0.0536 0.04537,-0.0693 0.100769,-0.0351 0.0596,0.0369 0.07719,0.024 0.04289,-0.0315 -0.03183,-0.0515 0.03357,-0.16605 0.145727,-0.25425 0.11211,-0.0882 0.187749,-0.20931 0.167949,-0.26871 -0.0198,-0.0595 -0.0032,-0.10755 0.03669,-0.10749 0.0395,7e-5 0.05562,-0.34317 0.03462,-0.76274 -0.021,-0.41957 -0.04093,-1.22037 -0.04392,-1.77922 -0.003,-0.55884 -0.03718,-0.97059 -0.07648,-0.91519 -0.0392,0.0554 -0.05556,-0.29993 -0.03566,-0.78962 0.0218,-0.53657 0.0045,-0.87046 -0.04444,-0.84026 -0.048,0.0297 -0.0779,-0.2828 -0.0739,-0.76584 0.0085,-0.93649 -0.03351,-1.94247 -0.117305,-2.82102 -0.1514,-1.5865 -0.172217,-1.86905 -0.176217,-2.4107 -0.0024,-0.32187 -0.0395,-0.55824 -0.0832,-0.53124 -0.0455,0.0282 -0.05807,-0.17765 -0.02997,-0.48782 0.0332,-0.36612 0.01949,-0.51846 -0.04341,-0.47956 -0.063,0.0389 -0.07661,-0.11295 -0.04341,-0.47904 0.0272,-0.29912 0.01319,-0.5364 -0.031,-0.5364 -0.0435,0 -0.07366,-0.22558 -0.06666,-0.50126 0.0068,-0.27567 -0.01671,-0.71713 -0.05271,-0.98082 -0.12103,-0.88591 -0.158948,-1.2617 -0.167948,-1.66967 -0.0049,-0.22315 -0.04433,-0.3842 -0.08733,-0.3576 -0.0442,0.0273 -0.05836,-0.12732 -0.03256,-0.35657 0.0277,-0.24566 0.01113,-0.40566 -0.04237,-0.40566 -0.0546,0 -0.06781,-0.15127 -0.03411,-0.39687 0.0344,-0.25109 0.02319,-0.37715 -0.03101,-0.34365 -0.0519,0.032 -0.08413,-0.11251 -0.08113,-0.36587 0.0025,-0.23042 -0.02024,-0.57613 -0.05064,-0.76791 -0.0304,-0.19177 -0.07188,-0.46595 -0.09198,-0.60978 -0.02012,-0.14383 -0.07636,-0.47735 -0.125057,-0.74104 -0.0484,-0.26368 -0.06681,-0.57128 -0.04031,-0.68317 0.0334,-0.14118 0.01676,-0.18416 -0.05374,-0.14056 -0.0726,0.0448 -0.091,-0.0281 -0.06459,-0.25424 0.0203,-0.17435 0.0067,-0.31678 -0.03049,-0.31678 -0.0372,0 -0.06498,-0.14732 -0.06098,-0.32711 0.0079,-0.37077 -0.04864,-0.78139 -0.136942,-0.99322 -0.0332,-0.079 -0.05111,-0.19659 -0.04031,-0.26149 0.0108,-0.0649 -0.01064,-0.18721 -0.04754,-0.27181 -0.0369,-0.0846 -0.0466,-0.23192 -0.0217,-0.32712 0.0248,-0.0951 0.0042,-0.17311 -0.04548,-0.17311 -0.0548,0 -0.07051,-0.121 -0.04031,-0.30696 0.0342,-0.21096 0.01971,-0.28865 -0.04599,-0.24805 -0.066,0.0408 -0.07963,-0.0396 -0.04393,-0.25941 0.0284,-0.17526 0.0159,-0.31833 -0.02791,-0.31833 -0.0439,0 -0.08013,-0.14732 -0.08061,-0.32711 -0.0013,-0.47309 -0.05511,-0.94027 -0.120407,-1.04593 -0.0311,-0.0504 -0.0585,-0.18394 -0.0615,-0.29662 -0.01443,-0.61582 -0.04695,-0.85835 -0.115755,-0.85835 -0.0423,0 -0.05479,-0.13808 -0.02739,-0.30696 0.0342,-0.21095 0.02022,-0.28864 -0.04548,-0.24804 -0.066,0.0408 -0.07962,-0.0401 -0.04392,-0.25994 0.0287,-0.17673 0.01533,-0.31832 -0.02997,-0.31832 -0.0449,0 -0.07951,-0.12737 -0.07751,-0.28319 0.0051,-0.36617 -0.05044,-0.76543 -0.133842,-0.96273 -0.0364,-0.086 -0.0419,-0.18031 -0.0124,-0.20981 0.0295,-0.0295 0.0098,-0.106437 -0.04341,-0.170527 -0.053,-0.06408 -0.07636,-0.194798 -0.05116,-0.290938 0.0251,-0.09614 0.0056,-0.175184 -0.04341,-0.175184 -0.049,0 -0.07066,-0.09657 -0.04806,-0.214973 0.0252,-0.131756 0.007,-0.194064 -0.04702,-0.160714 -0.0565,0.03494 -0.06784,-0.04566 -0.03204,-0.224793 0.0394,-0.196837 0.02651,-0.261511 -0.04289,-0.218591 -0.0685,0.04229 -0.08116,-0.0082 -0.04186,-0.164848 0.0326,-0.129975 0.01656,-0.25036 -0.03824,-0.28422 -0.05233,-0.03232 -0.07589,-0.132762 -0.05219,-0.223242 0.0237,-0.09047 0.0058,-0.164848 -0.03979,-0.164848 -0.0455,0 -0.07511,-0.04859 -0.06511,-0.108521 0.0097,-0.05993 -0.02618,-0.214614 -0.07958,-0.343648 -0.05334,-0.129033 -0.108273,-0.344902 -0.122473,-0.479557 -0.0142,-0.134655 -0.05513,-0.266596 -0.09043,-0.293006 -0.03528,-0.0264 -0.08144,-0.18293 -0.102836,-0.348299 -0.0214,-0.165369 -0.04629,-0.320712 -0.05529,-0.344682 -0.009,-0.02397 -0.0122,-0.07256 -0.0062,-0.10852 0.0056,-0.03596 -0.03268,-0.06563 -0.08578,-0.06563 -0.0535,0 -0.07498,-0.05624 -0.04858,-0.125057 0.0264,-0.06881 0.0073,-0.138479 -0.04237,-0.155029 -0.04967,-0.01656 -0.09587,-0.13683 -0.10387,-0.267168 -0.0076,-0.130338 -0.04595,-0.23716 -0.08475,-0.237194 -0.0387,-4e-5 -0.04829,-0.03573 -0.02119,-0.07958 0.0271,-0.04385 0.01124,-0.09296 -0.03566,-0.109037 -0.04682,-0.01608 -0.103257,-0.127672 -0.125057,-0.24753 -0.0218,-0.119859 -0.04733,-0.237513 -0.05633,-0.261483 -0.009,-0.02397 -0.01168,-0.07256 -0.0057,-0.108521 0.0057,-0.03596 -0.02576,-0.06563 -0.06976,-0.06563 -0.08392,0 -0.413021,-0.780527 -0.376721,-0.893485 0.0116,-0.03596 -0.02051,-0.06511 -0.07131,-0.06511 -0.0507,0 -0.06836,-0.03939 -0.03876,-0.08733 0.0296,-0.04794 0.01019,-0.08733 -0.04341,-0.08733 -0.0536,0 -0.07301,-0.03939 -0.04341,-0.08733 0.0297,-0.04794 0.01635,-0.08682 -0.02945,-0.08682 -0.04576,0 -0.160565,-0.155738 -0.254765,-0.346232 -0.0943,-0.190494 -0.127714,-0.324939 -0.07441,-0.298689 0.0533,0.02625 0.02894,-0.0083 -0.05426,-0.07648 -0.0831,-0.06822 -0.125768,-0.149647 -0.09457,-0.180867 0.0312,-0.03122 0.01233,-0.05684 -0.04237,-0.05684 -0.05471,0 -0.160211,-0.117653 -0.234611,-0.261483 -0.0747,-0.14383 -0.107264,-0.261483 -0.07286,-0.261483 0.0344,0 -0.0017,-0.04911 -0.0801,-0.109037 -0.07841,-0.05993 -0.154899,-0.164107 -0.169499,-0.232027 -0.01462,-0.06792 -0.0963,-0.197154 -0.181901,-0.286804 -0.08564,-0.08965 -0.132153,-0.201 -0.103353,-0.24753 0.02875,-0.04653 -0.009,-0.108283 -0.08371,-0.136943 -0.0747,-0.02866 -0.116418,-0.08302 -0.09302,-0.120923 0.02341,-0.03789 -0.01883,-0.09226 -0.09353,-0.120923 -0.0745,-0.02866 -0.110932,-0.09176 -0.08113,-0.140043 0.0298,-0.04828 0.01256,-0.08733 -0.03824,-0.08733 -0.0508,0 -0.0925,-0.05882 -0.0925,-0.130741 0,-0.07191 -0.03385,-0.130742 -0.07545,-0.130742 -0.04158,0 -0.179532,-0.157043 -0.306442,-0.348816 -0.12697,-0.191773 -0.202781,-0.348816 -0.168981,-0.348816 0.03382,0 -0.0149,-0.05777 -0.108004,-0.128157 -0.0932,-0.07039 -0.135351,-0.129241 -0.09405,-0.130741 0.04127,-0.0015 -0.01755,-0.07986 -0.130742,-0.17415 -0.11315,-0.09429 -0.172041,-0.17255 -0.130741,-0.17415 0.04125,-0.0016 3.3e-5,-0.07165 -0.09147,-0.155546 -0.0915,-0.0839 -0.105723,-0.113882 -0.03152,-0.06666 0.07417,0.04722 -0.0332,-0.08157 -0.238745,-0.286288 -0.20555,-0.204717 -0.352062,-0.407668 -0.325562,-0.450618 0.0265,-0.04295 0.0024,-0.106387 -0.05374,-0.141077 -0.0673,-0.04155 -0.08102,-0.02122 -0.04082,0.05943 0.0336,0.06734 -0.0095,0.02519 -0.0956,-0.09353 -0.08612,-0.118725 -0.274232,-0.351971 -0.418062,-0.518315 -0.14385,-0.166345 -0.202642,-0.27043 -0.130742,-0.23151 0.07191,0.03892 -0.04574,-0.08894 -0.261482,-0.284221 -0.2157,-0.19528 -0.353308,-0.357384 -0.305408,-0.360184 0.0479,-0.0028 0.02849,-0.04239 -0.04341,-0.08785 -0.07195,-0.04546 -0.130742,-0.12291 -0.130742,-0.1726 0,-0.0497 -0.02543,-0.08072 -0.05633,-0.06873 -0.07181,0.02783 -0.421276,-0.286021 -0.399976,-0.359151 0.0088,-0.03025 -0.246457,-0.304897 -0.56689,-0.610299 -0.320428,-0.305403 -0.574377,-0.580099 -0.564307,-0.610299 0.01007,-0.0302 -0.0077,-0.05478 -0.03979,-0.05478 -0.109775,0 -0.500628,-0.41508 -0.482658,-0.51263 0.0099,-0.05357 -0.02774,-0.0887 -0.08372,-0.07803 -0.05598,0.01067 -0.327896,-0.224635 -0.604098,-0.522966 -0.276201,-0.29833 -0.537506,-0.542602 -0.580326,-0.542602 -0.04281,0 -0.195603,-0.137089 -0.340031,-0.304891 -0.144432,-0.167839 -0.236972,-0.246587 -0.205672,-0.174667 0.0313,0.07192 -0.08935,-0.02578 -0.267684,-0.217558 -0.178342,-0.191774 -0.295223,-0.289984 -0.259933,-0.218074 0.03529,0.07192 -0.05673,0.0026 -0.204638,-0.153996 -0.14791,-0.156572 -0.269234,-0.262958 -0.269234,-0.236678 0,0.02628 -0.215352,-0.115106 -0.479041,-0.314193 -0.263688,-0.199087 -0.479557,-0.39889 -0.479557,-0.4439 0,-0.04501 -0.03687,-0.0592 -0.08165,-0.03152 -0.04478,0.02768 -0.227364,-0.09736 -0.406177,-0.278019 -0.178809,-0.180666 -0.296346,-0.269841 -0.260966,-0.197921 0.03963,0.08055 0.01647,0.07247 -0.05994,-0.02067 -0.06822,-0.08316 -0.143215,-0.131704 -0.166915,-0.108004 -0.0237,0.0237 -0.147546,-0.05352 -0.274919,-0.171566 -0.127372,-0.118046 -0.23151,-0.195906 -0.23151,-0.173116 0,0.07313 -0.473619,-0.250003 -0.639238,-0.436149 -0.08806,-0.09898 -0.134526,-0.121529 -0.102836,-0.04961 0.03168,0.07192 -0.0041,0.05482 -0.07958,-0.03824 -0.07547,-0.09306 -0.136942,-0.14134 -0.136942,-0.10697 0,0.03436 -0.117653,0.002 -0.261483,-0.07235 -0.14383,-0.07438 -0.261483,-0.179911 -0.261483,-0.234611 0,-0.0547 -0.02562,-0.07411 -0.05684,-0.04289 -0.03122,0.03122 -0.112647,-0.01141 -0.180867,-0.09457 -0.06828,-0.08315 -0.09765,-0.09913 -0.06511,-0.03566 0.049,0.09556 0.02791,0.0954 -0.124023,5.17e-4 -0.100901,-0.06302 -0.183451,-0.146279 -0.183451,-0.185519 0,-0.03924 -0.03602,-0.04946 -0.0801,-0.02222 -0.04408,0.02725 -0.137669,-0.0074 -0.207739,-0.07751 -0.07007,-0.07004 -0.151704,-0.103061 -0.181384,-0.07338 -0.02968,0.02968 -0.05374,0.0055 -0.05374,-0.05323 0,-0.05877 -0.03939,-0.08234 -0.08733,-0.05271 -0.04794,0.02964 -0.08733,0.01019 -0.08733,-0.04341 0,-0.05361 -0.03888,-0.07355 -0.08682,-0.04393 -0.04794,0.02964 -0.08733,0.01019 -0.08733,-0.04341 0,-0.0536 -0.03939,-0.07355 -0.08733,-0.04393 -0.04794,0.02963 -0.08682,0.01019 -0.08682,-0.04341 0,-0.05363 -0.03654,-0.0753 -0.08062,-0.04806 -0.04408,0.02724 -0.140387,-0.01068 -0.214457,-0.08475 -0.07407,-0.07407 -0.14598,-0.127555 -0.15968,-0.118855 -0.07001,0.04471 -0.417029,-0.121331 -0.417029,-0.199471 0,-0.04985 -0.05882,-0.06791 -0.130741,-0.04031 -0.07191,0.0276 -0.130741,0.01 -0.130741,-0.03927 0,-0.04927 -0.03596,-0.06778 -0.07958,-0.04082 -0.121452,0.07506 -0.36271,-0.04473 -0.29869,-0.148312 0.03111,-0.05032 0.01573,-0.06647 -0.03411,-0.03566 -0.04984,0.0308 -0.216526,0.01216 -0.370004,-0.04134 -0.234343,-0.08169 -0.26011,-0.116094 -0.16123,-0.214974 0.09402,-0.09402 0.183374,-0.09737 0.443384,-0.01757 0.179096,0.05497 0.325561,0.135154 0.325561,0.178284 0,0.04314 0.07878,0.05368 0.174667,0.02325 0.09589,-0.03044 0.174149,-0.01794 0.174149,0.02791 0,0.04585 0.04911,0.08127 0.109037,0.07906 0.273382,-0.01015 0.420508,0.03032 0.375688,0.102836 -0.02687,0.04347 0.02962,0.05816 0.125574,0.03307 0.101439,-0.02653 0.174149,-0.0027 0.174149,0.05684 0,0.05641 0.03939,0.07821 0.08733,0.04858 0.04794,-0.02963 0.0873,-0.02174 0.08733,0.01705 3.4e-5,0.03879 0.102838,0.07642 0.228926,0.08372 0.126087,0.0073 0.254014,0.04618 0.283704,0.08682 0.0297,0.04064 0.09314,0.07636 0.141077,0.07906 0.21685,0.01209 0.566373,0.152346 0.566373,0.227376 0,0.04557 0.03939,0.05857 0.08733,0.02894 0.04794,-0.02964 0.08733,-0.0097 0.08733,0.04393 0,0.05361 0.0365,0.07461 0.08113,0.04703 0.04463,-0.02759 0.105825,-0.0097 0.136425,0.03979 0.0306,0.04946 0.09231,0.06789 0.136943,0.04031 0.04463,-0.02758 0.08113,-0.0066 0.08113,0.04703 0,0.05362 0.03627,0.07495 0.08061,0.04754 0.100552,-0.06215 0.529684,0.12667 0.529684,0.233061 0,0.04308 0.03888,0.05443 0.08682,0.0248 0.04794,-0.02963 0.08733,-0.0061 0.08733,0.05271 0,0.0588 0.02501,0.08196 0.05529,0.05168 0.03028,-0.03027 0.13821,-0.0089 0.239779,0.04754 0.101569,0.05644 0.213637,0.09442 0.249597,0.08423 0.03596,-0.01018 0.06563,0.02313 0.06563,0.0739 0,0.05078 0.03602,0.07013 0.0801,0.04289 0.04408,-0.02725 0.13767,0.0074 0.20774,0.07752 0.07007,0.07004 0.151704,0.103577 0.181384,0.0739 0.02968,-0.02968 0.05374,-0.0084 0.05374,0.04754 0,0.05593 0.02967,0.09267 0.06563,0.08165 0.121773,-0.0373 0.806153,0.279444 0.806153,0.373104 0,0.05117 0.03939,0.0689 0.08733,0.03927 0.04794,-0.02963 0.08682,-0.0061 0.08682,0.05271 0,0.05874 0.02445,0.08252 0.05426,0.05271 0.07443,-0.07443 0.904854,0.354774 0.904854,0.467672 0,0.04993 0.03322,0.0701 0.0739,0.04496 0.04068,-0.02514 0.149849,0.02163 0.242879,0.10387 0.09303,0.08225 0.226583,0.161824 0.296623,0.176734 0.07004,0.01491 0.199261,0.113128 0.287321,0.218074 0.08803,0.10495 0.129831,0.131865 0.0925,0.05994 -0.06034,-0.116227 -0.04918,-0.116227 0.101286,0 0.0931,0.07191 0.198357,0.170134 0.233577,0.218074 0.0427,0.05811 0.06498,0.05811 0.06718,0 0.0018,-0.04794 0.08395,0.01088 0.182934,0.130742 0.09898,0.11986 0.151699,0.163471 0.116789,0.09715 -0.03491,-0.06632 0.177367,0.04293 0.471806,0.24288 0.294438,0.199949 0.535368,0.403695 0.535368,0.452685 0,0.04899 0.03582,0.06684 0.07958,0.03979 0.04376,-0.02705 0.164063,0.05911 0.267684,0.191203 0.103624,0.132091 0.160154,0.185626 0.125574,0.118856 -0.03458,-0.06677 0.115392,0.01149 0.332796,0.174149 0.217405,0.162654 0.373763,0.331284 0.347783,0.374654 -0.02598,0.04337 -0.005,0.05303 0.04651,0.02119 0.05152,-0.03184 0.199059,0.06955 0.327629,0.225826 0.12852,0.156283 0.207283,0.225399 0.175183,0.153479 -0.03214,-0.07191 0.08728,0.0263 0.265617,0.218074 0.17835,0.191777 0.296516,0.299709 0.262516,0.239779 -0.09595,-0.168914 -0.0088,-0.129108 0.174667,0.0801 0.0913,0.104126 0.110708,0.156926 0.04341,0.117306 -0.0832,-0.049 -0.102328,-0.03944 -0.05943,0.02997 0.03468,0.05611 0.09257,0.08379 0.128674,0.06149 0.08079,-0.04993 1.602674,1.466876 1.537374,1.532206 -0.02579,0.02579 0.04169,0.121824 0.149862,0.213424 0.19559,0.16564 0.195679,0.165323 0.06563,-0.01344 -0.07192,-0.09885 0.03311,-0.0014 0.23306,0.216008 0.19996,0.217454 0.34076,0.431836 0.31316,0.476456 -0.0276,0.0446 -0.01446,0.06029 0.02894,0.03514 0.04337,-0.02515 0.176763,0.07547 0.296623,0.223242 0.1199,0.147777 0.159233,0.236298 0.08733,0.196888 -0.07191,-0.03941 -0.01309,0.02905 0.130742,0.152445 0.14388,0.123396 0.227852,0.226193 0.186552,0.227893 -0.04127,0.0017 0.01756,0.08443 0.130741,0.183968 0.1132,0.09954 0.146831,0.150982 0.07493,0.114722 -0.07191,-0.03626 -0.0034,0.05536 0.152445,0.203088 0.15582,0.147727 0.283187,0.331077 0.283187,0.407727 0,0.07666 0.0363,0.139527 0.0801,0.139527 0.04383,0 0.200282,0.195916 0.347782,0.435632 0.14754,0.239717 0.241473,0.436149 0.208773,0.436149 -0.03267,0 0.0048,0.04911 0.0832,0.109037 0.07841,0.05993 0.154382,0.166425 0.168982,0.237195 0.01462,0.07077 0.07603,0.182074 0.136426,0.247014 0.0609,0.06494 0.09024,0.150085 0.06615,0.189135 -0.02413,0.03905 0.01677,0.09433 0.09147,0.12299 0.0747,0.02866 0.113599,0.0881 0.0863,0.132292 -0.0273,0.04419 -0.01318,0.09347 0.03152,0.109554 0.0446,0.01608 0.09395,0.08736 0.109554,0.15813 0.01558,0.07077 0.07758,0.181556 0.137976,0.246496 0.06033,0.06494 0.08766,0.154358 0.06046,0.198438 -0.0273,0.04408 -0.0061,0.0801 0.04754,0.0801 0.0536,0 0.07353,0.03939 0.04393,0.08733 -0.0296,0.04794 -0.01019,0.08682 0.04341,0.08682 0.0532,0 0.07516,0.03625 0.04806,0.0801 -0.0271,0.04385 -0.01256,0.09244 0.03204,0.108521 0.04461,0.01608 0.09395,0.08828 0.109554,0.160197 0.0156,0.07192 0.05979,0.154128 0.09819,0.182418 0.0383,0.02828 0.07572,0.13622 0.08371,0.239778 0.0077,0.103559 0.04725,0.188103 0.08785,0.188103 0.0406,0 0.04975,0.03939 0.02015,0.08733 -0.0296,0.04794 -0.01019,0.08682 0.04341,0.08682 0.0536,0 0.07353,0.03939 0.04393,0.08733 -0.0296,0.04794 -0.0093,0.08733 0.04548,0.08733 0.0545,0 0.08336,0.0485 0.06356,0.108004 -0.01985,0.0595 0.01825,0.162387 0.08475,0.228927 0.0666,0.06654 0.101515,0.172488 0.07752,0.235128 -0.024,0.06264 -0.0077,0.125996 0.03617,0.141076 0.04388,0.01508 0.09757,0.125605 0.119373,0.245463 0.0218,0.119859 0.04199,0.227789 0.04599,0.239779 0.004,0.01198 0.003,0.04691 -0.001,0.07751 -0.0041,0.0306 0.0389,0.08432 0.0956,0.119372 0.05671,0.03505 0.109272,0.166919 0.116272,0.293006 0.0073,0.126087 0.04727,0.229409 0.08837,0.229443 0.0411,3.4e-5 0.05371,0.05473 0.02791,0.121956 -0.0255,0.06723 -0.02225,0.146684 0.0078,0.176734 0.0301,0.03005 0.06523,0.10269 0.07803,0.16123 0.0129,0.05854 0.03554,0.165285 0.05064,0.237195 0.0151,0.07192 0.0582,0.179849 0.0956,0.239779 0.0374,0.05993 0.04407,0.14843 0.01447,0.19637 -0.02966,0.04794 0.0069,0.08682 0.08165,0.08682 0.0764,0 0.135909,-0.07385 0.135909,-0.168981 0,-0.09306 0.03782,-0.192319 0.08372,-0.220659 0.0456,-0.02834 0.06241,-0.105519 0.03721,-0.171049 -0.0252,-0.06553 -0.0074,-0.142696 0.03927,-0.171566 0.0469,-0.02887 0.06556,-0.126094 0.04186,-0.216524 -0.0236,-0.09043 -1.07e-4,-0.190922 0.05219,-0.223242 0.0527,-0.03256 0.07146,-0.153508 0.04186,-0.271301 -0.032,-0.127352 -0.01578,-0.212907 0.04082,-0.212907 0.0594,0 0.07439,-0.101687 0.03979,-0.274919 -0.034,-0.169768 -0.02253,-0.255145 0.02997,-0.222725 0.0503,0.03135 0.06953,-0.0508 0.04703,-0.204122 -0.0207,-0.141298 0.0023,-0.256832 0.05116,-0.256832 0.0486,0 0.06883,-0.07795 0.04393,-0.173116 -0.0249,-0.09517 -0.0152,-0.242492 0.0217,-0.327112 0.0369,-0.08462 0.05834,-0.206948 0.04754,-0.271818 -0.0108,-0.06487 0.0069,-0.182523 0.03927,-0.261483 0.09142,-0.222356 0.145042,-0.708403 0.133842,-1.211295 -0.0056,-0.251702 0.02478,-0.457337 0.06718,-0.457337 0.0426,0 0.05706,-0.280487 0.03256,-0.623217 -0.0255,-0.356741 -0.01111,-0.602759 0.03359,-0.575159 0.045,0.02781 0.07803,-0.756093 0.07803,-1.8526 0,-1.108745 -0.03265,-1.88097 -0.07855,-1.8526 -0.0455,0.02812 -0.05859,-0.177711 -0.03049,-0.487826 0.0281,-0.309936 0.01413,-0.536401 -0.03307,-0.536401 -0.0449,0 -0.07576,-0.186197 -0.06976,-0.413928 0.01256,-0.455101 -0.03766,-0.852561 -0.137459,-1.093474 -0.0357,-0.08597 -0.04035,-0.180326 -0.01085,-0.209806 0.0295,-0.02948 0.0098,-0.105936 -0.04341,-0.170016 -0.053,-0.06408 -0.07574,-0.195315 -0.05064,-0.291455 0.0251,-0.09614 0.0052,-0.174666 -0.04393,-0.174666 -0.049,0 -0.07014,-0.09708 -0.04754,-0.215491 0.025,-0.130418 0.0064,-0.19391 -0.04651,-0.16123 -0.0549,0.03395 -0.06544,-0.03191 -0.02894,-0.17725 0.037,-0.147386 0.02239,-0.230994 -0.04031,-0.230994 -0.054,0 -0.07609,-0.05726 -0.04909,-0.127641 0.0271,-0.07038 0.0081,-0.153565 -0.04186,-0.184485 -0.0499,-0.03092 -0.07176,-0.130178 -0.04806,-0.220658 0.0237,-0.09048 0.0055,-0.164331 -0.04083,-0.164331 -0.0463,0 -0.06171,-0.0365 -0.03411,-0.08113 0.0276,-0.04463 0.0076,-0.107396 -0.04444,-0.139526 -0.0519,-0.03213 -0.07411,-0.110697 -0.04961,-0.174667 0.0245,-0.06397 0.0087,-0.12858 -0.03514,-0.14366 -0.04387,-0.01508 -0.09099,-0.125604 -0.104387,-0.245463 -0.0134,-0.119858 -0.05759,-0.242118 -0.09819,-0.271818 -0.0407,-0.0297 -0.08033,-0.1571 -0.08733,-0.283187 -0.0073,-0.126087 -0.04492,-0.22941 -0.08372,-0.229444 -0.0387,-3e-5 -0.04614,-0.03939 -0.01654,-0.08733 0.0296,-0.04794 0.0084,-0.08733 -0.04754,-0.08733 -0.0557,0 -0.07873,-0.06079 -0.05013,-0.135392 0.0285,-0.07441 0.01911,-0.114787 -0.02119,-0.08992 -0.0726,0.04487 -0.336272,-0.629622 -0.295072,-0.754993 0.0119,-0.03596 -0.02,-0.06563 -0.0708,-0.06563 -0.0507,0 -0.06784,-0.03939 -0.03824,-0.08733 0.0296,-0.04794 0.01019,-0.08682 -0.04341,-0.08682 -0.0532,0 -0.07568,-0.03625 -0.04858,-0.0801 0.0271,-0.04385 0.01868,-0.09244 -0.01912,-0.10852 -0.03783,-0.01608 -0.156146,-0.179067 -0.262516,-0.361735 -0.1064,-0.182667 -0.144233,-0.306879 -0.08423,-0.276469 0.05999,0.03041 0.04134,-5.1e-4 -0.04186,-0.06873 -0.0831,-0.06822 -0.125768,-0.149647 -0.09457,-0.180867 0.0312,-0.03122 0.01019,-0.05685 -0.04651,-0.05685 -0.05671,0 -0.171148,-0.147323 -0.254248,-0.327111 -0.08313,-0.179787 -0.209737,-0.374649 -0.281637,-0.433049 -0.0723,-0.0584 -0.103046,-0.107537 -0.06925,-0.109037 0.03377,-0.0015 -0.03735,-0.100915 -0.157614,-0.221175 -0.12026,-0.120261 -0.196082,-0.25481 -0.168982,-0.29869 0.02712,-0.04387 -0.06835,-0.163426 -0.211873,-0.265617 -0.14351,-0.102191 -0.253946,-0.21266 -0.244946,-0.24598 0.01975,-0.07571 -1.691926,-1.79429 -1.792656,-1.79989 -0.0405,-0.0023 -0.172425,-0.121787 -0.293005,-0.265617 -0.12053,-0.143825 -0.192063,-0.202651 -0.159163,-0.130741 0.03288,0.07191 -0.01699,0.04382 -0.110588,-0.06201 -0.09359,-0.105831 -0.191558,-0.170734 -0.217558,-0.144694 -0.02604,0.02604 -0.09153,-0.03561 -0.145727,-0.136942 -0.05424,-0.101335 -0.136001,-0.161159 -0.181901,-0.132809 -0.04583,0.02835 -0.104525,-0.0033 -0.130225,-0.07028 -0.0257,-0.06696 -0.09521,-0.121956 -0.154512,-0.121956 -0.14907,0 -0.581877,-0.292098 -0.581877,-0.392741 0,-0.04525 -0.03943,-0.05805 -0.08733,-0.02842 -0.048,0.02963 -0.08733,0.0061 -0.08733,-0.05271 0,-0.05881 -0.02478,-0.08224 -0.05478,-0.05219 -0.07393,0.07393 -0.555522,-0.181438 -0.555522,-0.294556 0,-0.04954 -0.03892,-0.0658 -0.08682,-0.03617 -0.048,0.02963 -0.08733,0.01849 -0.08733,-0.02429 0,-0.04279 -0.05786,-0.07751 -0.128157,-0.07751 -0.19095,0 -0.830957,-0.305338 -0.830957,-0.396358 0,-0.04349 -0.03888,-0.05443 -0.08682,-0.02481 -0.04794,0.02963 -0.08733,0.02042 -0.08733,-0.02015 0,-0.04057 -0.08454,-0.08005 -0.188102,-0.08785 -0.103558,-0.0078 -0.211499,-0.04536 -0.239779,-0.08372 -0.02829,-0.03835 -0.09055,-0.07223 -0.138493,-0.07493 -0.21685,-0.01209 -0.56689,-0.152347 -0.56689,-0.227377 0,-0.04557 -0.03939,-0.05857 -0.08733,-0.02894 -0.04794,0.02963 -0.08678,0.02174 -0.08682,-0.01705 -3.4e-5,-0.03878 -0.106857,-0.07663 -0.237194,-0.08423 -0.130338,-0.0076 -0.250608,-0.0542 -0.267168,-0.10387 -0.01655,-0.04969 -0.08621,-0.06878 -0.155029,-0.04237 -0.06881,0.0264 -0.125057,0.0022 -0.125057,-0.05374 0,-0.05589 -0.03618,-0.07933 -0.0801,-0.05219 -0.04392,0.02714 -0.191244,0.0033 -0.327112,-0.05271 -0.135867,-0.05603 -0.276166,-0.09503 -0.312126,-0.08733 -0.03596,0.0077 -0.0656,-0.01572 -0.06563,-0.05168 -3.4e-5,-0.03596 -0.09807,-0.07113 -0.218074,-0.07803 -0.120004,-0.0069 -0.2868,-0.04215 -0.37052,-0.07855 -0.08372,-0.03639 -0.225053,-0.05675 -0.314193,-0.04548 -0.08914,0.01127 -0.142192,-0.01233 -0.117822,-0.05219 0.02437,-0.03986 -0.09827,-0.08 -0.272335,-0.0894 -0.174065,-0.0093 -0.328488,-0.05425 -0.343648,-0.09974 -0.01516,-0.04551 -0.104331,-0.06271 -0.197921,-0.03824 -0.09359,0.02447 -0.170016,0.0092 -0.170016,-0.03411 0,-0.04327 -0.06855,-0.08587 -0.152445,-0.09457 -0.183446,-0.01897 -0.571243,-0.0875 -0.632003,-0.111622 -0.02397,-0.0095 -0.11247,-0.01005 -0.19637,-0.0016 -0.0839,0.0085 -0.152446,-0.0208 -0.152446,-0.06511 0,-0.04433 -0.104009,-0.06097 -0.230993,-0.03669 -0.141568,0.02706 -0.209784,0.01059 -0.176734,-0.04289 0.03231,-0.05231 -0.02848,-0.07156 -0.151412,-0.04806 -0.112787,0.02156 -0.230353,-0.0018 -0.261483,-0.05219 -0.03113,-0.05035 -0.110169,-0.07114 -0.175699,-0.04599 -0.06553,0.02515 -0.144307,0.0057 -0.174667,-0.04341 -0.03036,-0.04909 -0.108619,-0.06907 -0.174149,-0.04393 -0.06553,0.02515 -0.14379,0.0057 -0.17415,-0.04341 -0.03036,-0.04908 -0.113495,-0.06703 -0.184485,-0.03979 -0.07099,0.02724 -0.1823,0.005 -0.24753,-0.04909 -0.06523,-0.05413 -0.182459,-0.07386 -0.260449,-0.04393 -0.07799,0.02993 -0.14211,0.01499 -0.14211,-0.03359 0,-0.04854 -0.07826,-0.06797 -0.17415,-0.04289 -0.09589,0.02507 -0.174149,0.0056 -0.174149,-0.04341 0,-0.04908 -0.07878,-0.06901 -0.174667,-0.04393 -0.09589,0.02508 -0.174149,0.0029 -0.174149,-0.04909 0,-0.05202 -0.05883,-0.07204 -0.130742,-0.04444 -0.07191,0.02759 -0.130741,0.0082 -0.130741,-0.04341 0,-0.05158 -0.05882,-0.07101 -0.130741,-0.04341 -0.07191,0.0276 -0.130742,0.01304 -0.130742,-0.03204 0,-0.04509 -0.04911,-0.08757 -0.109037,-0.09457 -0.530261,-0.0617 -0.944568,-0.195278 -0.888318,-0.286288 0.02613,-0.04228 -0.01345,-0.05335 -0.08785,-0.0248 -0.07459,0.02862 -0.135392,0.0064 -0.135392,-0.04961 0,-0.05587 -0.03888,-0.07769 -0.08682,-0.04806 -0.04794,0.02963 -0.08733,0.01253 -0.08733,-0.03824 0,-0.05078 -0.02967,-0.08323 -0.06563,-0.07183 -0.11025,0.03495 -0.632003,-0.210726 -0.632003,-0.297656 0,-0.04496 -0.03665,-0.05933 -0.08165,-0.03152 -0.045,0.02781 -0.116987,-0.01218 -0.160197,-0.0894 -0.04322,-0.07722 -0.104793,-0.136558 -0.136943,-0.131258 -0.1252,0.02051 -0.561646,-0.255904 -0.612366,-0.38809 -0.02944,-0.07672 -0.08432,-0.120412 -0.121956,-0.09715 -0.03764,0.02326 -0.165186,-0.03651 -0.283704,-0.132808 -0.118515,-0.0963 -0.166383,-0.149816 -0.106453,-0.118856 0.166518,0.08603 0.129867,0.0043 -0.08062,-0.180351 -0.121173,-0.10629 -0.163426,-0.118839 -0.117306,-0.03514 0.03963,0.07192 -0.04998,0.0172 -0.198954,-0.12144 -0.148979,-0.138643 -0.262915,-0.295686 -0.253215,-0.348816 0.0097,-0.05313 -0.02913,-0.08755 -0.0863,-0.07648 -0.125175,0.02423 -0.478115,-0.403336 -0.415995,-0.503845 0.0241,-0.039 -0.0023,-0.09915 -0.0584,-0.133842 -0.06374,-0.0394 -0.07863,-0.02513 -0.03979,0.03772 0.0342,0.05535 0.04336,0.100253 0.02067,0.100253 -0.02269,0 -0.163639,-0.199543 -0.313676,-0.443384 -0.150024,-0.24384 -0.222217,-0.417156 -0.160197,-0.385506 0.06203,0.03165 0.04492,0.0016 -0.03824,-0.06666 -0.08315,-0.06823 -0.125787,-0.149647 -0.09457,-0.180867 0.03121,-0.03122 0.01723,-0.05633 -0.03101,-0.05633 -0.109796,0 -0.30834,-0.4231 -0.24598,-0.523999 0.02536,-0.04104 0.0056,-0.09962 -0.04393,-0.130224 -0.04946,-0.0306 -0.06737,-0.0918 -0.03979,-0.136426 0.02758,-0.04463 0.0042,-0.08113 -0.05168,-0.08113 -0.05586,0 -0.07928,-0.05882 -0.05168,-0.130741 0.02759,-0.07191 0.01586,-0.130742 -0.02636,-0.130742 -0.04222,0 -0.102975,-0.154806 -0.134875,-0.343648 -0.03085,-0.182621 -0.06806,-0.276916 -0.120923,-0.29869 z m 33.44602,4.303097 c -0.02397,0 -0.114738,0.07878 -0.201538,0.174666 -0.08679,0.09589 -0.138205,0.17415 -0.114205,0.17415 0.02397,0 0.114739,-0.07826 0.201539,-0.17415 0.08679,-0.09589 0.138204,-0.174666 0.114204,-0.174666 z m 0.11989,4.20181 c -0.0053,0.0078 0.0014,0.02746 0.02015,0.05788 0.01231,0.0198 0.02886,0.0269 0.04444,0.03669 v -0.07958 c -0.0049,-0.002 -0.0097,0.0014 -0.01447,-0.0016 -0.02775,-0.01717 -0.04484,-0.02124 -0.05013,-0.01344 z m -1.32395,1.203028 c -0.0045,-0.0045 -0.03991,0.02175 -0.109038,0.07596 -0.08385,0.0658 -0.152445,0.134346 -0.152445,0.152446 0,0.07174 0.07164,0.02583 0.185518,-0.119373 0.05422,-0.06913 0.08046,-0.104538 0.07597,-0.109037 z m -1.481564,1.481563 c -0.0045,-0.0045 -0.03991,0.02227 -0.109037,0.07648 -0.08394,0.0658 -0.152446,0.134346 -0.152446,0.152446 0,0.07174 0.07164,0.02531 0.185519,-0.11989 0.05422,-0.06913 0.08046,-0.104538 0.07596,-0.109037 z m -4.682918,1.42782 c -0.0092,0.0092 -0.01557,0.03966 -0.01757,0.09043 -0.0038,0.09189 0.01699,0.143691 0.04599,0.114721 0.0291,-0.02896 0.03192,-0.104501 0.0067,-0.167431 -0.01395,-0.03477 -0.02595,-0.04689 -0.03514,-0.03772 z m 0.08682,0.784448 c -0.0092,0.0092 -0.01505,0.03966 -0.01705,0.09043 -0.0038,0.09189 0.01647,0.143692 0.04548,0.114722 0.0291,-0.02897 0.03243,-0.103985 0.0072,-0.166915 -0.01395,-0.03477 -0.02647,-0.04741 -0.03566,-0.03824 z M 62.31248,75.992261 c 0.09257,-0.007 0.168465,0.02429 0.168465,0.06925 0,0.09923 -0.234299,0.109053 -0.294039,0.0124 -0.02348,-0.03799 0.033,-0.07465 0.125574,-0.08165 z M 91.595443,87.64943 c -0.0045,-0.0045 -0.03991,0.02175 -0.109038,0.07597 -0.08394,0.0658 -0.152445,0.134862 -0.152445,0.152962 0,0.07174 0.07164,0.02531 0.185518,-0.119889 0.05422,-0.06913 0.08046,-0.104539 0.07596,-0.109038 z m -0.697632,0.610299 c -0.0045,-0.0045 -0.0394,0.02175 -0.108521,0.07596 -0.08385,0.0658 -0.152962,0.134346 -0.152962,0.152446 0,0.07174 0.07164,0.02583 0.185519,-0.119373 0.05422,-0.06913 0.08046,-0.104538 0.07596,-0.109037 z m -0.435632,0.435632 c -0.0045,-0.0045 -0.03991,0.02227 -0.109038,0.07648 -0.08385,0.0658 -0.152445,0.134346 -0.152445,0.152446 0,0.07174 0.07164,0.02531 0.185518,-0.119889 0.05422,-0.06913 0.08046,-0.104538 0.07597,-0.109038 z m -0.610299,0.697632 c -0.0045,-0.0045 -0.03991,0.02175 -0.109037,0.07596 -0.08385,0.0658 -0.152446,0.134345 -0.152446,0.152445 0,0.07174 0.07165,0.02583 0.185519,-0.119373 0.05422,-0.06913 0.08046,-0.104538 0.07596,-0.109037 z m -0.435632,0.522966 c -0.0045,-0.0045 -0.03991,0.02175 -0.109038,0.07596 -0.08394,0.0658 -0.152445,0.134345 -0.152445,0.152445 0,0.07174 0.07165,0.02583 0.185518,-0.119372 0.05422,-0.06913 0.08046,-0.104538 0.07596,-0.109037 z m -0.610299,6.276102 c -0.0045,-0.0045 -0.03991,0.02175 -0.109037,0.07597 -0.0838,0.06568 -0.152214,0.134205 -0.152446,0.152445 v 5.17e-4 c 4.95e-4,0.07068 0.07203,0.02481 0.185519,-0.119889 0.05422,-0.06913 0.08046,-0.104538 0.07596,-0.109038 z m -0.435632,0.436149 c -0.0045,-0.0045 -0.03991,0.02175 -0.109038,0.07597 -0.08395,0.0658 -0.152445,0.134345 -0.152445,0.152445 h -5.17e-4 c 0,0.07174 0.07164,0.02531 0.185518,-0.119889 0.05422,-0.06913 0.08098,-0.104021 0.07648,-0.108521 z m -0.610299,0.784449 c -0.0045,-0.0045 -0.03991,0.02175 -0.109037,0.07596 -0.08395,0.0658 -0.152446,0.134346 -0.152446,0.152446 0,0.07174 0.07164,0.02583 0.185519,-0.119373 0.05422,-0.06913 0.08046,-0.104538 0.07596,-0.109037 z" /><path
         id="path3-4"
         style="fill:#ff6600"
         d="m 92.638636,64.952353 c -0.02969,-1.79e-4 -0.07596,0.138121 -0.10336,0.306958 -0.07838,0.483 -0.40083,1.045742 -0.83664,1.461409 -0.4173,0.398002 -1.04198,0.842157 -1.24282,0.883667 -0.06406,0.01324 -0.29326,0.104839 -0.50901,0.203089 -0.21574,0.09825 -0.69136,0.301989 -1.0573,0.452685 -0.36594,0.150697 -0.88566,0.40627 -1.15497,0.568441 -0.26931,0.162171 -0.48989,0.281767 -0.48989,0.265617 0,-0.03436 -0.39461,0.293596 -0.93276,0.775146 -0.78198,0.699733 -1.53446,2.096811 -1.64641,3.056144 -0.0225,0.193246 -0.06473,0.488491 -0.09353,0.656291 -0.10723,0.623789 0.0462,2.342583 0.29197,3.269051 0.07635,0.28766 0.14948,0.601742 0.16278,0.697632 0.0132,0.09589 0.03237,0.183864 0.04237,0.195854 0.01,0.01199 0.02563,0.05137 0.03463,0.08733 0.0089,0.03596 0.08229,0.216917 0.16329,0.402559 0.08095,0.185643 0.14728,0.372355 0.14728,0.414445 0,0.04208 0.03944,0.07648 0.08734,0.07648 0.0479,0 0.08728,-0.0885 0.08785,-0.19637 5.7e-4,-0.107873 0.06159,-0.411723 0.13539,-0.675411 0.07384,-0.263687 0.14911,-0.538379 0.16691,-0.610299 0.0178,-0.07191 0.03848,-0.130741 0.04548,-0.130741 0.0073,0 0.03026,-0.09249 0.05116,-0.205672 0.05406,-0.292533 0.77482,-1.765317 0.96583,-1.973523 0.08797,-0.09589 0.21852,-0.291802 0.29042,-0.435632 0.24804,-0.49608 2.00603,-2.154871 2.93677,-2.770891 0.88055,-0.582801 1.94142,-1.141124 2.01952,-1.062984 0.02234,0.02234 -0.03104,0.119538 -0.11834,0.216008 -0.08731,0.09647 -0.17806,0.155734 -0.20206,0.131774 -0.02396,-0.02396 -0.09846,0.03464 -0.16536,0.130225 -0.06695,0.09558 -0.15559,0.17415 -0.19689,0.17415 -0.19643,0 -2.11815,1.840467 -2.78794,2.670121 -0.44275,0.548429 -1.40956,2.106103 -1.45366,2.341976 -0.009,0.04794 -0.12189,0.361511 -0.25063,0.697115 -0.12875,0.335603 -0.24435,0.66912 -0.25735,0.74104 -0.07248,0.401257 -0.21783,1.310016 -0.25683,1.60507 h -5.2e-4 c -0.0247,0.187639 -0.01371,0.305293 0.02429,0.261483 0.03801,-0.04381 0.22077,-0.269604 0.40618,-0.501779 0.36725,-0.459884 1.29341,-1.216513 1.38131,-1.128613 0.0301,0.03008 0.05478,0.0112 0.05478,-0.04186 0,-0.08532 2.51417,-1.372571 2.80086,-1.434021 0.06191,-0.01327 0.15329,-0.05529 0.20309,-0.09353 0.04981,-0.03824 0.31248,-0.214718 0.58342,-0.392224 1.29666,-0.849515 2.12672,-1.951578 2.65824,-3.528467 0.28159,-0.835329 0.30031,-0.963655 0.30231,-2.041736 0.0014,-0.922358 -0.03643,-1.284662 -0.18966,-1.830379 -0.10508,-0.374254 -0.19822,-0.719455 -0.20722,-0.767395 -0.009,-0.04794 -0.14202,-0.332358 -0.29559,-0.632003 -0.15359,-0.299646 -0.24899,-0.545486 -0.21239,-0.54622 0.0367,-7.4e-4 0.0255,-0.03041 -0.0248,-0.06563 -0.05025,-0.03522 -0.18452,-0.201169 -0.29869,-0.36897 -0.31759,-0.466804 -0.99825,-1.307048 -1.05885,-1.307413 z m -16.8398,6.800618 c -0.0624,8.1e-4 -0.05173,0.03501 0.02687,0.08578 0.16745,0.108223 0.19764,0.108223 0.13074,0 -0.02963,-0.04795 -0.10051,-0.08652 -0.15761,-0.08578 z m 1.76992,1.131714 c -0.0045,0.0045 0.02227,0.03991 0.07648,0.109037 0.06585,0.0839 0.13434,0.152446 0.15244,0.152446 0.07174,0 0.02532,-0.07164 -0.11989,-0.185519 -0.06912,-0.05421 -0.10454,-0.08046 -0.10903,-0.07596 z" /><path
         id="path9"
         style="fill:#ffd42a"
         d="m 102.34386,73.092654 c -0.0195,0.0034 -0.0346,0.02198 -0.0475,0.05323 -0.19179,0.463319 -0.26737,0.684587 -0.25477,0.743107 0.008,0.03596 -0.0277,0.06511 -0.0785,0.06511 -0.0508,0 -0.0705,0.03474 -0.0444,0.077 0.0459,0.07425 -0.25681,0.57857 -0.5488,0.914672 -0.38633,0.444684 -1.00687,1.001282 -1.07177,0.961182 -0.0402,-0.02486 -0.0729,-0.0075 -0.0729,0.03876 0,0.195518 -1.792648,1.007199 -2.441198,1.105359 -0.11985,0.01814 -0.29632,0.05154 -0.39222,0.07441 -1.858649,0.443345 -2.902629,0.705189 -3.399279,0.852659 -0.3356,0.09965 -0.64973,0.19022 -0.69763,0.20102 -0.04795,0.01079 -0.18503,0.06071 -0.30489,0.11111 -0.11986,0.05042 -0.43394,0.17699 -0.69763,0.28112 -0.26368,0.10414 -0.65113,0.28451 -0.86093,0.40101 -0.2098,0.11652 -0.43161,0.21187 -0.49351,0.21187 -0.06187,0 -0.12559,0.02963 -0.14159,0.06563 -0.01598,0.03596 -0.26035,0.22216 -0.54261,0.41393 -0.70165,0.47671 -1.63482,1.35383 -2.12338,1.99522 -0.22322,0.29306 -0.42752,0.5522 -0.45372,0.5762 -0.02621,0.02398 -0.1652,0.26916 -0.30903,0.54467 -0.14383,0.27551 -0.29111,0.50109 -0.32711,0.50126 -0.0364,2e-4 -0.05594,0.02963 -0.04444,0.06563 0.01154,0.03595 -0.0739,0.28098 -0.19017,0.54467 -0.11626,0.26369 -0.22483,0.5578 -0.24133,0.6537 -0.01653,0.09589 -0.06834,0.18751 -0.11524,0.20361 -0.0464,0.0161 -0.06737,0.05813 -0.04547,0.09353 0.02188,0.03539 -0.03714,0.31096 -0.13074,0.61185 -0.09365,0.3009 -0.18639,0.65066 -0.20619,0.77773 -0.22384,1.4391 -0.26814,2.01723 -0.26614,3.45664 0.0014,0.91092 0.05086,2.00919 0.10956,2.44068 0.05879,0.43149 0.12584,0.95248 0.14934,1.15755 0.06846,0.59802 0.31585,1.62396 0.41445,1.71876 0.0612,0.0588 0.07187,0.05421 0.03307,-0.01499 -0.04794,-0.08542 0.06928,-0.49533 0.35709,-1.24902 0.0275,-0.07192 0.06371,-0.20144 0.08061,-0.28784 0.01685,-0.08645 0.0905,-0.27211 0.1633,-0.41289 0.07281,-0.14077 0.13071,-0.27606 0.12971,-0.30076 -0.0054,-0.09161 0.63418,-1.31027 0.71468,-1.36167 0.046,-0.02932 0.0736,-0.08254 0.0615,-0.11834 -0.03138,-0.09312 0.94532,-1.55826 1.28829,-1.9327 0.15847,-0.17301 0.28861,-0.33907 0.28939,-0.36897 0.0019,-0.07236 1.77273,-1.79543 2.27893,-2.21743 0.57766,-0.48158 1.90331,-1.39184 1.90531,-1.30794 8e-4,0.0393 0.03066,0.02508 0.06666,-0.03152 0.03599,-0.05659 0.28071,-0.21716 0.54364,-0.35657 0.26292,-0.1394 0.61228,-0.33602 0.77669,-0.43718 0.16442,-0.10113 0.33112,-0.16434 0.37052,-0.14004 0.0393,0.0244 0.07183,3.7e-4 0.07183,-0.05323 0,-0.0532 0.03569,-0.07516 0.07959,-0.04806 0.04386,0.0271 0.09293,0.01675 0.10903,-0.02325 0.0305,-0.07579 1.166749,-0.61784 1.385449,-0.66094 0.069,-0.01361 0.31795,-0.11074 0.55294,-0.21549 0.23499,-0.10476 0.50917,-0.2058 0.60978,-0.2248 0.10061,-0.019 0.19315,-0.04219 0.20515,-0.05219 0.012,-0.0096 0.0508,-0.02301 0.0868,-0.03101 0.036,-0.0076 0.2421,-0.07861 0.45785,-0.15761 0.55566,-0.2034 0.87178,-0.26068 0.87178,-0.15864 0,0.04797 -0.0982,0.11149 -0.21807,0.14159 -0.11982,0.0301 -0.21807,0.08626 -0.21807,0.12506 0,0.03878 -0.1862,0.14117 -0.41393,0.22737 -0.22773,0.08622 -0.59041,0.26114 -0.80616,0.38861 -0.71708,0.42368 -1.26397,0.72285 -1.28777,0.70435 -0.0129,-0.01005 -0.0985,0.05101 -0.19017,0.13591 -0.0917,0.0849 -0.31618,0.23223 -0.499199,0.32763 -0.18302,0.09543 -0.35272,0.19776 -0.37672,0.22686 -0.0961,0.11674 -1.31331,0.95084 -1.38751,0.95084 -0.04374,0 -0.09252,0.0334 -0.10852,0.0739 -0.01598,0.04052 -0.38241,0.36967 -0.8139,0.73174 -0.97428,0.81751 -2.62214,2.51863 -2.96365,3.05924 -0.04794,0.0759 -0.30714,0.46346 -0.57619,0.86093 -0.26905,0.39747 -0.67691,1.0754 -0.9064,1.50689 -0.22949,0.43149 -0.4556,0.83358 -0.5023,0.89348 -0.0467,0.05997 -0.06124,0.10904 -0.03204,0.10904 0.02924,0 -0.04733,0.22559 -0.17053,0.50126 -0.1232,0.27568 -0.237,0.5601 -0.2527,0.632 -0.01573,0.07192 -0.16477,0.61107 -0.33124,1.19838 -0.16645,0.5873 -0.27525,1.06815 -0.24185,1.06815 0.0334,0 0.19546,-0.18048 0.36019,-0.40049 0.32171,-0.42968 1.1628,-1.1423 1.86862,-1.58337 0.45821,-0.28634 1.53139,-0.80907 1.71979,-0.83767 0.06079,-0.0092 0.15002,-0.0395 0.19792,-0.0677 0.10594,-0.0623 1.16802,-0.41364 1.40146,-0.46354 0.09214,-0.01969 0.49573,-0.13567 0.89711,-0.25786 0.40137,-0.12215 0.76091,-0.20282 0.79891,-0.17932 0.038,0.0235 0.0826,0.0058 0.0987,-0.03876 0.01608,-0.04453 0.1466,-0.09548 0.29043,-0.11368 0.36567,-0.04626 2.349509,-0.71147 3.023579,-1.0139 0.3081,-0.13824 0.82654,-0.41338 1.15239,-0.61133 0.32584,-0.19796 0.604678,-0.36018 0.619078,-0.36018 0.19988,0 2.19247,-2.02801 2.69751,-2.74557 0.37588,-0.53403 1.4424,-2.53225 1.5105,-2.8298 0.0136,-0.05938 0.12608,-0.44729 0.2496,-0.86197 0.12352,-0.41468 0.24043,-0.911 0.25993,-1.10277 0.0195,-0.19177 0.0568,-0.44288 0.0827,-0.55811 0.0415,-0.18411 0.14391,-1.47494 0.13591,-1.70842 -0.006,-0.1606 -0.18778,-2.00181 -0.22428,-2.26653 -0.0198,-0.14383 -0.0963,-0.47397 -0.1695,-0.7338 -0.0732,-0.25984 -0.11297,-0.504862 -0.0884,-0.544672 0.0246,-0.03981 -9.4e-4,-0.07235 -0.0568,-0.07235 -0.0555,0 -0.0788,-0.05883 -0.0512,-0.130741 0.0276,-0.07191 0.008,-0.130742 -0.0439,-0.130742 -0.0519,0 -0.0728,-0.05524 -0.047,-0.122473 0.0258,-0.06723 0.0203,-0.148734 -0.0124,-0.181384 -0.0327,-0.03265 -0.0611,-0.08535 -0.0631,-0.117306 -0.002,-0.03196 -0.09,-0.249866 -0.19585,-0.483691 -0.10586,-0.233826 -0.19275,-0.444525 -0.19275,-0.468705 0,-0.109581 -0.83662,-1.672956 -1.16272,-2.172477 -0.21983,-0.336727 -0.32077,-0.463825 -0.37931,-0.453719 z M 83.687123,87.673161 c -0.0092,0.0092 -0.01505,0.03966 -0.01705,0.09043 h -5.2e-4 c -0.0038,0.09191 0.01699,0.14321 0.04599,0.11421 0.0291,-0.02896 0.03192,-0.10402 0.0067,-0.16692 -0.01395,-0.03475 -0.02595,-0.04689 -0.03514,-0.03772 z m -0.08475,1.23972 c -0.008,0.01974 -0.01292,0.06202 -0.01292,0.12195 0,0.11986 0.01973,0.16842 0.04393,0.10852 0.0242,-0.05993 0.0242,-0.15766 0,-0.21756 -0.0121,-0.02996 -0.02304,-0.03266 -0.03101,-0.01291 z" /></g><path
       style="fill:#80ca28;fill-opacity:1;stroke:none;stroke-width:0.1;stroke-opacity:1"
       d="m 43.11352,97.072684 9.982517,16.290406 c 0,0 4.679833,11.45589 16.205363,11.17928 l 38.08033,0.82984 30.33518,0.82984 c -0.0922,0.0922 -78.834588,3.04274 -78.834588,3.04274 0,0 -11.156707,1.47526 -10.234665,-6.73091 0.922042,-8.20617 -0.720324,-14.24987 -1.181349,-16.46277 -0.461021,-2.2129 -4.458921,-9.190686 -4.458921,-9.190686 z"
       id="path24"
       sodipodi:nodetypes="ccccccsscc" /><text
       xml:space="preserve"
       style="font-style:normal;font-variant:normal;font-weight:bold;font-stretch:normal;font-size:12.6892px;font-family:Poppins;-inkscape-font-specification:'Poppins, Bold';font-variant-ligatures:normal;font-variant-caps:normal;font-variant-numeric:normal;font-variant-east-asian:normal;text-align:start;writing-mode:lr-tb;direction:ltr;text-anchor:start;fill:#1a1a1a;fill-opacity:1;stroke:none;stroke-width:0.589765;stroke-dasharray:none;stroke-opacity:1"
       x="67.007393"
       y="118.71534"
       id="text24"
       transform="scale(0.99565357,1.0043654)"><tspan
         sodipodi:role="line"
         id="tspan24"
         style="font-style:normal;font-variant:normal;font-weight:bold;font-stretch:normal;font-size:12.6892px;font-family:Poppins;-inkscape-font-specification:'Poppins, Bold';font-variant-ligatures:normal;font-variant-caps:normal;font-variant-numeric:normal;font-variant-east-asian:normal;fill:#1a1a1a;fill-opacity:1;stroke:none;stroke-width:0.589765;stroke-dasharray:none;stroke-opacity:1"
         x="67.007393"
         y="118.71534">Kebun Paktani</tspan></text><path
       style="fill:#999999;fill-opacity:1;stroke:none;stroke-width:0.0467991;stroke-dasharray:none;stroke-opacity:1"
       d="m 188.17476,177.3653 c -1.46491,-0.66587 -4.5279,2.39713 -0.39952,3.52911 4.12839,1.13197 -0.59928,3.46251 -0.59928,3.46251 0,0 8.52312,0.93222 1.46491,9.05582 -7.05821,8.1236 -11.91905,-0.26635 -12.98444,-0.26635 -2.19737,-3.39593 -6.12599,0.99881 -2.19737,-3.39593 3.92863,-4.39473 5.26037,-3.39593 5.26037,-3.39593 0,0 -6.45893,-4.32815 -0.93222,-5.12719 5.52671,-0.79904 1.06539,-2.06419 4.0618,-3.39593 2.99641,-1.33174 3.063,-4.46132 3.063,-4.46132 z"
       id="path1-8"
       inkscape:export-filename="pcxxZCzczcczcath1.png"
       inkscape:export-xdpi="598.29858"
       inkscape:export-ydpi="598.29858" /><path
       style="fill:#b3b3b3;fill-opacity:1;stroke:none;stroke-width:0.0302408;stroke-dasharray:none;stroke-opacity:1"
       d="m 185.65043,180.48007 c -0.83458,-0.48802 -2.57962,1.75686 -0.22761,2.5865 2.35202,0.82963 -0.34142,2.53769 -0.34142,2.53769 0,0 4.85577,0.68322 0.83459,6.63704 -4.02119,5.95382 -6.7905,-0.19521 -7.39747,-0.19521 -1.25188,-2.48889 -3.49009,0.73203 -1.25188,-2.48889 2.23821,-3.22092 2.99692,-2.48889 2.99692,-2.48889 0,0 -3.67977,-3.17211 -0.5311,-3.75774 3.14867,-0.58562 0.60697,-1.51285 2.31408,-2.48889 1.7071,-0.97603 1.74504,-3.26972 1.74504,-3.26972 z"
       id="path2-8" /><path
       style="fill:#cccccc;fill-opacity:1;stroke:none;stroke-width:0.0169328;stroke-dasharray:none;stroke-opacity:1"
       d="m 184.13815,182.99498 c -0.46731,-0.27326 -1.44442,0.98372 -0.12745,1.44826 1.31696,0.46453 -0.19117,1.42093 -0.19117,1.42093 0,0 2.71889,0.38256 0.4673,3.71628 -2.25158,3.33372 -3.8022,-0.10931 -4.14206,-0.10931 -0.70097,-1.3936 -1.95421,0.40989 -0.70097,-1.3936 1.25324,-1.80349 1.67807,-1.39361 1.67807,-1.39361 0,0 -2.06041,-1.77616 -0.29738,-2.10407 1.76303,-0.3279 0.33986,-0.84709 1.29573,-1.3936 0.95585,-0.54652 0.9771,-1.83082 0.9771,-1.83082 z"
       id="path3-2" /><path
       style="fill:#999999;fill-opacity:1;stroke:none;stroke-width:0.0351201;stroke-dasharray:none;stroke-opacity:1"
       d="m 190.82965,180.7143 c 0,0 -1.31248,-2.59689 -0.3375,-2.92982 0.97499,-0.33294 1.76248,0.33293 1.31248,1.39832 -0.44999,1.06539 -0.97498,1.5315 -0.97498,1.5315 z"
       id="path5" /><path
       style="fill:#999999;fill-opacity:1;stroke:none;stroke-width:0.0344653;stroke-dasharray:none;stroke-opacity:1"
       d="m 184.91942,168.72474 c 0,0 -1.264,-2.59689 -0.32503,-2.92982 0.93897,-0.33294 1.69737,0.33293 1.264,1.39832 -0.43337,1.06539 -0.93897,1.5315 -0.93897,1.5315 z"
       id="path6" /><path
       style="fill:#999999;fill-opacity:1;stroke:none;stroke-width:0.0292651;stroke-dasharray:none;stroke-opacity:1"
       d="m 188.4387,173.65217 c 0,0 1.45737,-1.62392 0.37476,-1.83212 -1.08262,-0.20819 -1.95704,0.2082 -1.45737,0.87442 0.49966,0.66623 1.08261,0.9577 1.08261,0.9577 z"
       id="path7-4" /><path
       style="fill:#999999;fill-opacity:1;stroke:none;stroke-width:0.0370148;stroke-dasharray:none;stroke-opacity:1"
       d="m 172.25791,185.10119 c 0,0 -1.45791,-2.59689 -0.37489,-2.92982 1.08303,-0.33294 1.95778,0.33293 1.45792,1.39832 -0.49986,1.06539 -1.08303,1.5315 -1.08303,1.5315 z"
       id="path8-5" /><path
       style="fill:#999999;fill-opacity:1;stroke:none;stroke-width:0.0419713;stroke-dasharray:none;stroke-opacity:1"
       d="m 179.9071,176.02367 c 0,0 -1.3852,-3.51421 -0.3562,-3.96474 1.029,-0.45055 1.86012,0.45053 1.3852,1.89226 -0.47492,1.44173 -1.029,2.07248 -1.029,2.07248 z"
       id="path9-5" /><path
       style="fill:#cccccc;fill-opacity:1;stroke:none;stroke-width:0.0120317;stroke-dasharray:none;stroke-opacity:1"
       d="m 172.41051,184.08335 c 0,0 -0.4739,-0.84412 -0.12186,-0.95234 0.35204,-0.10823 0.63638,0.10822 0.4739,0.45452 -0.16248,0.34631 -0.35204,0.49782 -0.35204,0.49782 z"
       id="path10" /><path
       style="fill:#cccccc;fill-opacity:1;stroke:none;stroke-width:0.0141548;stroke-dasharray:none;stroke-opacity:1"
       d="m 180.04946,174.67118 c 0,0 -0.46716,-1.18516 -0.12013,-1.33711 0.34704,-0.15194 0.62733,0.15195 0.46716,0.63817 -0.16017,0.48622 -0.34703,0.69894 -0.34703,0.69894 z"
       id="path11-1" /><path
       style="fill:#cccccc;fill-opacity:1;stroke:none;stroke-width:0.0134825;stroke-dasharray:none;stroke-opacity:1"
       d="m 185.03875,167.80663 c 0,0 -0.49446,-1.01587 -0.12715,-1.14611 0.36732,-0.13024 0.664,0.13024 0.49447,0.54701 -0.16953,0.41677 -0.36732,0.5991 -0.36732,0.5991 z"
       id="path12" /><path
       style="fill:#cccccc;fill-opacity:1;stroke:none;stroke-width:0.0129418;stroke-dasharray:none;stroke-opacity:1"
       d="m 188.31265,173.12618 c 0,0 0.64449,-0.71815 0.16572,-0.81022 -0.47876,-0.0921 -0.86545,0.0921 -0.64449,0.3867 0.22097,0.29462 0.47877,0.42352 0.47877,0.42352 z"
       id="path13-7" /><path
       style="fill:#cccccc;fill-opacity:1;stroke:none;stroke-width:0.0144872;stroke-dasharray:none;stroke-opacity:1"
       d="m 190.94922,179.82834 c 0,0 -0.5414,-1.07123 -0.13922,-1.20857 0.40219,-0.13734 0.72703,0.13734 0.54141,0.57682 -0.18563,0.43948 -0.40219,0.63175 -0.40219,0.63175 z"
       id="path14-1" /><text
       xml:space="preserve"
       style="font-style:normal;font-variant:normal;font-weight:bold;font-stretch:normal;font-size:7.0439px;font-family:Poppins;-inkscape-font-specification:'Poppins, Bold';font-variant-ligatures:normal;font-variant-caps:normal;font-variant-numeric:normal;font-variant-east-asian:normal;text-align:start;writing-mode:lr-tb;direction:ltr;text-anchor:start;fill:#b3b3b3;fill-opacity:1;stroke:none;stroke-width:0.0363923;stroke-dasharray:none;stroke-opacity:1"
       x="160.28462"
       y="204.03526"
       id="text14"><tspan
         sodipodi:role="line"
         id="tspan14"
         style="font-style:normal;font-variant:normal;font-weight:bold;font-stretch:normal;font-size:7.0439px;font-family:Poppins;-inkscape-font-specification:'Poppins, Bold';font-variant-ligatures:normal;font-variant-caps:normal;font-variant-numeric:normal;font-variant-east-asian:normal;fill:#b3b3b3;stroke-width:0.0363923"
         x="160.28462"
         y="204.03526">Masak Batu</tspan></text></g></svg>
