<?xml version="1.0" encoding="UTF-8" standalone="no"?>
<!-- Created with Inkscape (http://www.inkscape.org/) -->

<svg
   width="210mm"
   height="210mm"
   viewBox="0 0 210 210"
   version="1.1"
   id="svg1"
   inkscape:version="1.4 (86a8ad7, 2024-10-11)"
   sodipodi:docname="pecahtelurvektor.svg"
   xmlns:inkscape="http://www.inkscape.org/namespaces/inkscape"
   xmlns:sodipodi="http://sodipodi.sourceforge.net/DTD/sodipodi-0.dtd"
   xmlns="http://www.w3.org/2000/svg"
   xmlns:svg="http://www.w3.org/2000/svg">
  <sodipodi:namedview
     id="namedview1"
     pagecolor="#ffffff"
     bordercolor="#000000"
     borderopacity="0.25"
     inkscape:showpageshadow="2"
     inkscape:pageopacity="0.0"
     inkscape:pagecheckerboard="0"
     inkscape:deskcolor="#d1d1d1"
     inkscape:document-units="mm"
     inkscape:zoom="0.78186581"
     inkscape:cx="450.20513"
     inkscape:cy="438.05471"
     inkscape:window-width="1920"
     inkscape:window-height="974"
     inkscape:window-x="-11"
     inkscape:window-y="-11"
     inkscape:window-maximized="1"
     inkscape:current-layer="layer1" />
  <defs
     id="defs1" />
  <g
     inkscape:label="Layer 1"
     inkscape:groupmode="layer"
     id="layer1">
    <rect
       style="fill:#ffffff;fill-opacity:1;stroke:#d37c5f;stroke-width:0.1;stroke-dasharray:none;stroke-opacity:1"
       id="rect37"
       width="210.48474"
       height="210.48474"
       x="-0.24237061"
       y="-0.24237061"
       inkscape:export-filename="pecahtedfsdfsdfludfgdgr-finals1.png"
       inkscape:export-xdpi="301.54132"
       inkscape:export-ydpi="301.54132" />
    <path
       style="fill:#999999;fill-opacity:1;stroke:none;stroke-width:0.0467991;stroke-dasharray:none;stroke-opacity:1"
       d="m 188.63936,175.62359 c -1.46491,-0.66587 -4.5279,2.39713 -0.39952,3.52911 4.12839,1.13197 -0.59928,3.46251 -0.59928,3.46251 0,0 8.52312,0.93222 1.46491,9.05582 -7.05821,8.1236 -11.91905,-0.26635 -12.98444,-0.26635 -2.19737,-3.39593 -6.12599,0.99881 -2.19737,-3.39593 3.92863,-4.39473 5.26037,-3.39593 5.26037,-3.39593 0,0 -6.45893,-4.32815 -0.93222,-5.12719 5.52671,-0.79904 1.06539,-2.06419 4.0618,-3.39593 2.99641,-1.33174 3.063,-4.46132 3.063,-4.46132 z"
       id="path1-8"
       inkscape:export-filename="pcxxZCzczcczcath1.png"
       inkscape:export-xdpi="598.29858"
       inkscape:export-ydpi="598.29858" />
    <path
       style="fill:#b3b3b3;fill-opacity:1;stroke:none;stroke-width:0.0302408;stroke-dasharray:none;stroke-opacity:1"
       d="m 186.11503,178.73836 c -0.83458,-0.48802 -2.57962,1.75686 -0.22761,2.5865 2.35202,0.82963 -0.34142,2.53769 -0.34142,2.53769 0,0 4.85577,0.68322 0.83459,6.63704 -4.02119,5.95382 -6.7905,-0.19521 -7.39747,-0.19521 -1.25188,-2.48889 -3.49009,0.73203 -1.25188,-2.48889 2.23821,-3.22092 2.99692,-2.48889 2.99692,-2.48889 0,0 -3.67977,-3.17211 -0.5311,-3.75774 3.14867,-0.58562 0.60697,-1.51285 2.31408,-2.48889 1.7071,-0.97603 1.74504,-3.26972 1.74504,-3.26972 z"
       id="path2-8" />
    <path
       style="fill:#cccccc;fill-opacity:1;stroke:none;stroke-width:0.0169328;stroke-dasharray:none;stroke-opacity:1"
       d="m 184.60275,181.25327 c -0.46731,-0.27326 -1.44442,0.98372 -0.12745,1.44826 1.31696,0.46453 -0.19117,1.42093 -0.19117,1.42093 0,0 2.71889,0.38256 0.4673,3.71628 -2.25158,3.33372 -3.8022,-0.10931 -4.14206,-0.10931 -0.70097,-1.3936 -1.95421,0.40989 -0.70097,-1.3936 1.25324,-1.80349 1.67807,-1.39361 1.67807,-1.39361 0,0 -2.06041,-1.77616 -0.29738,-2.10407 1.76303,-0.3279 0.33986,-0.84709 1.29573,-1.3936 0.95585,-0.54652 0.9771,-1.83082 0.9771,-1.83082 z"
       id="path3-2" />
    <path
       style="fill:#999999;fill-opacity:1;stroke:none;stroke-width:0.0351201;stroke-dasharray:none;stroke-opacity:1"
       d="m 191.29425,178.97259 c 0,0 -1.31248,-2.59689 -0.3375,-2.92982 0.97499,-0.33294 1.76248,0.33293 1.31248,1.39832 -0.44999,1.06539 -0.97498,1.5315 -0.97498,1.5315 z"
       id="path5" />
    <path
       style="fill:#999999;fill-opacity:1;stroke:none;stroke-width:0.0344653;stroke-dasharray:none;stroke-opacity:1"
       d="m 185.38402,166.98303 c 0,0 -1.264,-2.59689 -0.32503,-2.92982 0.93897,-0.33294 1.69737,0.33293 1.264,1.39832 -0.43337,1.06539 -0.93897,1.5315 -0.93897,1.5315 z"
       id="path6" />
    <path
       style="fill:#999999;fill-opacity:1;stroke:none;stroke-width:0.0292651;stroke-dasharray:none;stroke-opacity:1"
       d="m 188.9033,171.91046 c 0,0 1.45737,-1.62392 0.37476,-1.83212 -1.08262,-0.20819 -1.95704,0.2082 -1.45737,0.87442 0.49966,0.66623 1.08261,0.9577 1.08261,0.9577 z"
       id="path7-4" />
    <path
       style="fill:#999999;fill-opacity:1;stroke:none;stroke-width:0.0370148;stroke-dasharray:none;stroke-opacity:1"
       d="m 172.72251,183.35948 c 0,0 -1.45791,-2.59689 -0.37489,-2.92982 1.08303,-0.33294 1.95778,0.33293 1.45792,1.39832 -0.49986,1.06539 -1.08303,1.5315 -1.08303,1.5315 z"
       id="path8-5" />
    <path
       style="fill:#999999;fill-opacity:1;stroke:none;stroke-width:0.0419713;stroke-dasharray:none;stroke-opacity:1"
       d="m 180.3717,174.28196 c 0,0 -1.3852,-3.51421 -0.3562,-3.96474 1.029,-0.45055 1.86012,0.45053 1.3852,1.89226 -0.47492,1.44173 -1.029,2.07248 -1.029,2.07248 z"
       id="path9-5" />
    <path
       style="fill:#cccccc;fill-opacity:1;stroke:none;stroke-width:0.0120317;stroke-dasharray:none;stroke-opacity:1"
       d="m 172.87511,182.34164 c 0,0 -0.4739,-0.84412 -0.12186,-0.95234 0.35204,-0.10823 0.63638,0.10822 0.4739,0.45452 -0.16248,0.34631 -0.35204,0.49782 -0.35204,0.49782 z"
       id="path10" />
    <path
       style="fill:#cccccc;fill-opacity:1;stroke:none;stroke-width:0.0141548;stroke-dasharray:none;stroke-opacity:1"
       d="m 180.51406,172.92947 c 0,0 -0.46716,-1.18516 -0.12013,-1.33711 0.34704,-0.15194 0.62733,0.15195 0.46716,0.63817 -0.16017,0.48622 -0.34703,0.69894 -0.34703,0.69894 z"
       id="path11-1" />
    <path
       style="fill:#cccccc;fill-opacity:1;stroke:none;stroke-width:0.0134825;stroke-dasharray:none;stroke-opacity:1"
       d="m 185.50335,166.06492 c 0,0 -0.49446,-1.01587 -0.12715,-1.14611 0.36732,-0.13024 0.664,0.13024 0.49447,0.54701 -0.16953,0.41677 -0.36732,0.5991 -0.36732,0.5991 z"
       id="path12" />
    <path
       style="fill:#cccccc;fill-opacity:1;stroke:none;stroke-width:0.0129418;stroke-dasharray:none;stroke-opacity:1"
       d="m 188.77725,171.38447 c 0,0 0.64449,-0.71815 0.16572,-0.81022 -0.47876,-0.0921 -0.86545,0.0921 -0.64449,0.3867 0.22097,0.29462 0.47877,0.42352 0.47877,0.42352 z"
       id="path13-7" />
    <path
       style="fill:#cccccc;fill-opacity:1;stroke:none;stroke-width:0.0144872;stroke-dasharray:none;stroke-opacity:1"
       d="m 191.41382,178.08663 c 0,0 -0.5414,-1.07123 -0.13922,-1.20857 0.40219,-0.13734 0.72703,0.13734 0.54141,0.57682 -0.18563,0.43948 -0.40219,0.63175 -0.40219,0.63175 z"
       id="path14-1" />
    <text
       xml:space="preserve"
       style="font-style:normal;font-variant:normal;font-weight:bold;font-stretch:normal;font-size:7.0439px;font-family:Poppins;-inkscape-font-specification:'Poppins, Bold';font-variant-ligatures:normal;font-variant-caps:normal;font-variant-numeric:normal;font-variant-east-asian:normal;text-align:start;writing-mode:lr-tb;direction:ltr;text-anchor:start;fill:#b3b3b3;fill-opacity:1;stroke:none;stroke-width:0.0363923;stroke-dasharray:none;stroke-opacity:1"
       x="160.74922"
       y="202.29353"
       id="text14"><tspan
         sodipodi:role="line"
         id="tspan14"
         style="font-style:normal;font-variant:normal;font-weight:bold;font-stretch:normal;font-size:7.0439px;font-family:Poppins;-inkscape-font-specification:'Poppins, Bold';font-variant-ligatures:normal;font-variant-caps:normal;font-variant-numeric:normal;font-variant-east-asian:normal;fill:#b3b3b3;stroke-width:0.0363923"
         x="160.74922"
         y="202.29353">Masak Batu</tspan></text>
    <text
       xml:space="preserve"
       style="font-weight:bold;font-size:27.4847px;font-family:Poppins;-inkscape-font-specification:'Poppins, Bold';text-align:start;writing-mode:lr-tb;direction:ltr;text-anchor:start;fill:#e9c0af;fill-opacity:1;stroke:#d37c5f;stroke-width:0.1;stroke-dasharray:none;stroke-opacity:1"
       x="19.627195"
       y="168.35397"
       id="text34"><tspan
         sodipodi:role="line"
         id="tspan34"
         style="stroke-width:0.1"
         x="19.627195"
         y="168.35397" /></text>
    <path
       d="m 69.628273,105.60931 c -2.722039,1.10515 -4.328567,1.26798 -7.748372,2.24506 -0.549185,0.15689 -1.049729,0.4788 -1.610782,0.5856 -0.28682,0.0546 -3.994067,0.0851 -4.39127,0 -1.06997,-0.22928 -2.456849,-0.94737 -3.513619,-1.31723 -1.514997,-0.53026 -3.044621,-1.02247 -4.538036,-1.61078 -2.714502,-1.06935 -5.410541,-2.43779 -8.19769,-3.36684 -0.606599,-0.20219 -0.699199,0.16239 -1.025177,0.29281 -0.506538,0.20265 -1.217751,-0.59243 -1.610027,0.2928 -0.85124,0.34049 -1.650646,0.79885 -2.488438,1.1712 -0.480253,0.21344 -0.993935,0.35056 -1.464,0.5856 -0.411752,0.20588 -0.752121,0.5419 -1.171205,0.73239 -0.133319,0.0606 -0.305808,-0.0594 -0.439576,0 -3.87265,1.72117 7.103746,-0.38098 -5.855274,2.04885 -0.854906,0.1603 -1.431278,0.24801 -2.064585,0.35046 a 23.129684,23.129684 0 0 0 22.997993,21.46209 23.129684,23.129684 0 0 0 23.129799,-23.12977 23.129684,23.129684 0 0 0 -0.0101,-0.34224 z"
       style="fill:#ff93c2;fill-opacity:1;stroke:#d37c5f;stroke-width:0.144912;stroke-opacity:1"
       id="path21" />
    <path
       d="m 45.190693,80.918681 a 23.129684,23.129684 0 0 0 -23.129038,23.129799 23.129684,23.129684 0 0 0 0.131,1.66769 c 0.633308,-0.10246 1.209694,-0.19017 2.064587,-0.35047 12.959019,-2.42982 1.982638,-0.32768 5.855273,-2.04885 0.133753,-0.0594 0.306314,0.0606 0.439575,0 0.419085,-0.19049 0.759454,-0.52651 1.171206,-0.73238 0.470064,-0.23505 0.983747,-0.37217 1.463999,-0.58561 0.837793,-0.37235 1.637198,-0.8307 2.488439,-1.1712 0.392275,-0.885225 1.103488,-0.0901 1.610041,-0.2928 0.325965,-0.13042 0.418563,-0.495 1.025178,-0.29281 2.787149,0.92905 5.483188,2.29749 8.19767,3.36684 1.493416,0.58831 3.023049,1.08052 4.538056,1.61078 1.05677,0.36986 2.44363,1.08795 3.513599,1.31723 0.397203,0.0851 4.10445,0.0546 4.39128,0 0.561063,-0.1068 1.061607,-0.4287 1.610772,-0.5856 3.419806,-0.97708 5.026343,-1.1399 7.748372,-2.24506 A 23.129684,23.129684 0 0 0 45.190693,80.918681 Z"
       style="fill:#7accb6;fill-opacity:1;stroke:#5fd38d;stroke-width:0.144912"
       id="path20" />
    <path
       d="m 41.294033,117.6016 c -0.603977,0.21052 -0.960446,0.24155 -1.719232,0.42769 -0.121872,0.0298 -0.232917,0.0911 -0.357411,0.11144 -0.06362,0.0101 -0.886222,0.0162 -0.974343,0 -0.237408,-0.0436 -0.545143,-0.18048 -0.77961,-0.25095 -0.336152,-0.101 -0.675564,-0.19479 -1.006919,-0.30685 -0.602297,-0.20372 -1.200507,-0.46442 -1.818932,-0.6414 -0.134623,-0.0384 -0.155143,0.0309 -0.227468,0.0558 -0.112451,0.0386 -0.270202,-0.11273 -0.357236,0.0558 -0.188878,0.0648 -0.36625,0.15217 -0.552143,0.22312 -0.10651,0.0406 -0.220541,0.0668 -0.324834,0.11144 -0.0913,0.0391 -0.166895,0.10317 -0.25987,0.13955 -0.02956,0.0115 -0.06782,-0.0116 -0.09753,0 -0.859283,0.32789 1.576191,-0.0726 -1.299191,0.3903 -0.18969,0.0304 -0.317574,0.0472 -0.458095,0.0666 a 5.1320878,4.4062759 0 0 0 5.102863,4.0886 5.1320878,4.4062759 0 0 0 5.132103,-4.4063 5.1320878,4.4062759 0 0 0 -0.0029,-0.0651 z"
       style="fill:#ffd8d8;fill-opacity:1;stroke:#5fd38d;stroke-width:0.0297931"
       id="path33" />
    <path
       d="m 37.634274,109.25735 c -0.603978,0.21052 -0.960446,0.24155 -1.719233,0.42769 -0.12187,0.0298 -0.232917,0.0911 -0.357411,0.11144 -0.06362,0.0101 -0.886222,0.0162 -0.974343,0 -0.237408,-0.0436 -0.545143,-0.18048 -0.779624,-0.25095 -0.336152,-0.101 -0.67555,-0.19479 -1.006905,-0.30685 -0.602311,-0.20372 -1.200507,-0.46441 -1.818932,-0.64139 -0.134623,-0.0384 -0.155142,0.0309 -0.227468,0.0558 -0.112451,0.0385 -0.270202,-0.11275 -0.357236,0.0558 -0.188878,0.0648 -0.36625,0.15218 -0.552142,0.22313 -0.106511,0.0406 -0.220542,0.0668 -0.324849,0.11143 -0.0913,0.0391 -0.166881,0.10318 -0.25987,0.13955 -0.02956,0.0116 -0.06782,-0.0116 -0.09753,0 -0.859268,0.32789 1.576205,-0.0726 -1.299177,0.39031 -0.18969,0.0304 -0.317574,0.0472 -0.458095,0.0667 a 5.1320878,4.4062759 0 0 0 5.102864,4.0886 5.1320878,4.4062759 0 0 0 5.132106,-4.4063 5.1320878,4.4062759 0 0 0 -0.0015,-0.0651 z"
       style="fill:#ffd8d8;fill-opacity:1;stroke:#5fd38d;stroke-width:0.0297931"
       id="path24" />
    <path
       d="m 49.784674,112.22004 c -0.603983,0.21052 -0.960432,0.24155 -1.719232,0.42769 -0.121873,0.0299 -0.232916,0.0911 -0.357411,0.11144 -0.06362,0.0101 -0.886208,0.0162 -0.974349,0 -0.237403,-0.0436 -0.545125,-0.18048 -0.779604,-0.25095 -0.336151,-0.101 -0.675554,-0.19479 -1.006926,-0.30685 -0.602292,-0.20372 -1.200506,-0.46441 -1.81893,-0.64139 -0.134626,-0.0384 -0.155138,0.0309 -0.227468,0.0558 -0.112451,0.0386 -0.270202,-0.11274 -0.357236,0.0558 -0.188879,0.0648 -0.366249,0.15217 -0.552137,0.22312 -0.106517,0.0406 -0.220542,0.0668 -0.324835,0.11143 -0.0913,0.0391 -0.16688,0.10318 -0.259877,0.13955 -0.02953,0.0116 -0.06779,-0.0116 -0.09752,0 -0.85928,0.3279 1.576205,-0.0726 -1.299189,0.39031 -0.18969,0.0304 -0.317574,0.0472 -0.458095,0.0667 a 5.1320878,4.4062759 0 0 0 5.102867,4.08859 5.1320878,4.4062759 0 0 0 5.132121,-4.4063 5.1320878,4.4062759 0 0 0 -0.0029,-0.0651 z"
       style="fill:#ffd8d8;fill-opacity:1;stroke:#5fd38d;stroke-width:0.0297931"
       id="path25" />
    <path
       d="m 62.667032,111.78087 c -0.603973,0.21052 -0.960441,0.24155 -1.719232,0.42769 -0.121872,0.0299 -0.232915,0.0911 -0.35741,0.11144 -0.06362,0.0101 -0.886219,0.0162 -0.97434,0 -0.237413,-0.0436 -0.545144,-0.18048 -0.779624,-0.25095 -0.33616,-0.101 -0.675554,-0.19479 -1.006906,-0.30685 -0.602312,-0.20371 -1.200506,-0.46441 -1.81893,-0.64139 -0.134626,-0.0384 -0.155148,0.0309 -0.227468,0.0558 -0.112451,0.0386 -0.270211,-0.11274 -0.357245,0.0558 -0.18887,0.0648 -0.366249,0.15217 -0.552137,0.22312 -0.106508,0.0406 -0.220542,0.0668 -0.324855,0.11143 -0.0913,0.0391 -0.16687,0.10318 -0.259868,0.13955 -0.02953,0.0116 -0.06779,-0.0116 -0.09752,0 -0.859266,0.3279 1.576205,-0.0726 -1.299175,0.39031 -0.189695,0.0304 -0.31758,0.0472 -0.458101,0.0667 a 5.1320878,4.4062759 0 0 0 5.102868,4.08859 5.1320878,4.4062759 0 0 0 5.132102,-4.4063 5.1320878,4.4062759 0 0 0 -9.71e-4,-0.0651 z"
       style="fill:#ffd8d8;fill-opacity:1;stroke:#5fd38d;stroke-width:0.0297931"
       id="path26" />
    <path
       d="m 56.079461,119.83234 c -0.603973,0.21053 -0.960432,0.24155 -1.719232,0.42769 -0.121872,0.0298 -0.232915,0.0912 -0.35741,0.11144 -0.06362,0.0101 -0.886209,0.0162 -0.97434,0 -0.237413,-0.0436 -0.545135,-0.18048 -0.779614,-0.25094 -0.33615,-0.10101 -0.675564,-0.1948 -1.006916,-0.30686 -0.602302,-0.20371 -1.200506,-0.46441 -1.81893,-0.6414 -0.134626,-0.0384 -0.155148,0.0309 -0.227468,0.0559 -0.112451,0.0386 -0.270202,-0.11274 -0.357236,0.0557 -0.188879,0.0648 -0.366258,0.15217 -0.552146,0.22312 -0.106508,0.0406 -0.220542,0.0668 -0.324835,0.11144 -0.0913,0.0391 -0.16689,0.10317 -0.259868,0.13955 -0.02953,0.0116 -0.06779,-0.0116 -0.09752,0 -0.859285,0.32789 1.576205,-0.0727 -1.299194,0.3903 -0.189695,0.0304 -0.31758,0.0472 -0.458101,0.0666 a 5.1320878,4.4062759 0 0 0 5.102868,4.0886 5.1320878,4.4062759 0 0 0 5.132122,-4.4063 5.1320878,4.4062759 0 0 0 -9.72e-4,-0.0651 z"
       style="fill:#ffd8d8;fill-opacity:1;stroke:#5fd38d;stroke-width:0.0297931"
       id="path27" />
    <path
       d="m 57.54336,89.675918 c -0.603963,0.210528 -0.960431,0.241554 -1.719231,0.427693 -0.121873,0.02986 -0.232916,0.09115 -0.357401,0.111437 -0.06362,0.01014 -0.886219,0.01623 -0.97435,0 -0.237413,-0.04362 -0.545134,-0.180473 -0.779614,-0.250944 -0.33615,-0.101003 -0.675554,-0.19479 -1.006916,-0.30685 -0.602302,-0.203717 -1.200505,-0.464413 -1.81892,-0.641394 -0.134626,-0.0384 -0.155138,0.03087 -0.227487,0.05579 -0.112451,0.03855 -0.270183,-0.112742 -0.357236,0.05579 -0.18887,0.06477 -0.366249,0.152172 -0.552137,0.223121 -0.106507,0.04058 -0.220532,0.0668 -0.324835,0.111437 -0.0913,0.03912 -0.16688,0.103177 -0.259868,0.13955 -0.02953,0.0116 -0.06779,-0.0116 -0.09753,0 -0.859266,0.327891 1.576205,-0.0726 -1.299185,0.390305 -0.189676,0.03043 -0.31758,0.04724 -0.4581,0.06666 a 5.1320878,4.4062759 0 0 0 5.102877,4.088596 5.1320878,4.4062759 0 0 0 5.132112,-4.406301 5.1320878,4.4062759 0 0 0 -9.71e-4,-0.06506 z"
       style="fill:#d5ffe6;stroke:#5fd38d;stroke-width:0.0297931"
       id="path28" />
    <path
       d="m 36.316751,95.38515 c -0.603963,0.210528 -0.960432,0.241554 -1.719233,0.427692 -0.12187,0.02986 -0.232917,0.09115 -0.357396,0.111438 -0.06362,0.01014 -0.886222,0.01623 -0.974357,0 -0.237409,-0.04362 -0.545129,-0.180473 -0.77961,-0.250943 -0.336152,-0.101005 -0.67555,-0.194792 -1.00692,-0.306852 -0.602296,-0.203716 -1.200507,-0.464412 -1.818917,-0.641393 -0.134623,-0.0384 -0.155143,0.03087 -0.227468,0.05579 -0.112451,0.03855 -0.270202,-0.112741 -0.357251,0.05579 -0.188863,0.06477 -0.36625,0.152171 -0.552142,0.22312 -0.106511,0.04058 -0.220527,0.0668 -0.324834,0.111438 -0.0913,0.03912 -0.166881,0.103177 -0.25987,0.139549 -0.02956,0.0116 -0.06782,-0.0116 -0.09753,0 -0.859269,0.327893 1.576204,-0.0726 -1.299191,0.390306 -0.189676,0.03043 -0.317574,0.04724 -0.458096,0.06666 a 5.1320878,4.4062759 0 0 0 5.102878,4.088598 5.1320878,4.4062759 0 0 0 5.132106,-4.406302 5.1320878,4.4062759 0 0 0 -0.0029,-0.06506 z"
       style="fill:#d5ffe6;stroke:#5fd38d;stroke-width:0.0297931"
       id="path29" />
    <path
       d="m 61.056726,98.898506 c -0.603963,0.210528 -0.960431,0.241553 -1.719231,0.427692 -0.121873,0.02986 -0.232916,0.09115 -0.357392,0.111437 -0.06362,0.01014 -0.886228,0.01623 -0.974359,0 -0.237413,-0.04362 -0.545125,-0.180473 -0.779614,-0.250943 -0.33615,-0.101003 -0.675544,-0.19479 -1.006916,-0.306851 -0.602292,-0.203716 -1.200505,-0.464413 -1.81892,-0.641393 -0.134616,-0.0384 -0.155138,0.03087 -0.227477,0.05579 -0.112452,0.03855 -0.270193,-0.112741 -0.357236,0.05579 -0.18888,0.06477 -0.366249,0.152172 -0.552147,0.22312 -0.106507,0.04058 -0.220523,0.0668 -0.324835,0.111437 -0.0913,0.03912 -0.16688,0.103177 -0.259868,0.139551 -0.02953,0.0116 -0.06779,-0.0116 -0.09752,0 -0.859267,0.327891 1.576205,-0.0726 -1.299195,0.390305 -0.189676,0.03043 -0.31757,0.04724 -0.458091,0.06666 a 5.1320878,4.4062759 0 0 0 5.102878,4.088599 5.1320878,4.4062759 0 0 0 5.132102,-4.406303 5.1320878,4.4062759 0 0 0 -9.71e-4,-0.06506 z"
       style="fill:#d5ffe6;stroke:#5fd38d;stroke-width:0.0297931"
       id="path30" />
    <path
       d="m 50.223844,95.385135 c -0.603982,0.210529 -0.960431,0.241554 -1.719231,0.427693 -0.121873,0.02986 -0.232926,0.09115 -0.357411,0.111437 -0.06362,0.01014 -0.886209,0.01623 -0.97435,0 -0.237403,-0.04362 -0.545124,-0.180473 -0.779604,-0.250943 -0.33616,-0.101004 -0.675554,-0.19479 -1.006925,-0.306851 -0.602293,-0.203716 -1.200506,-0.464413 -1.818911,-0.641393 -0.134625,-0.0384 -0.155148,0.03087 -0.227487,0.05579 -0.112451,0.03855 -0.270183,-0.112741 -0.357236,0.05579 -0.188879,0.06477 -0.366249,0.152172 -0.552147,0.22312 -0.106507,0.04058 -0.220532,0.0668 -0.324825,0.111437 -0.0913,0.03912 -0.16688,0.103177 -0.259878,0.139551 -0.02953,0.0116 -0.06779,-0.0116 -0.09752,0 -0.859268,0.327891 1.576205,-0.0726 -1.299191,0.390305 -0.189689,0.03043 -0.317573,0.04724 -0.458094,0.06666 a 5.1320878,4.4062759 0 0 0 5.102867,4.088597 5.1320878,4.4062759 0 0 0 5.132112,-4.406301 5.1320878,4.4062759 0 0 0 -0.0029,-0.06506 z"
       style="fill:#d5ffe6;stroke:#5fd38d;stroke-width:0.0297931"
       id="path31" />
    <path
       d="m 44.221841,85.576969 c -0.603973,0.210528 -0.960441,0.241554 -1.719232,0.427693 -0.121872,0.02985 -0.232915,0.09115 -0.35741,0.111436 -0.06362,0.01014 -0.886219,0.01623 -0.97434,0 -0.237424,-0.04362 -0.545144,-0.180473 -0.779626,-0.250943 -0.336152,-0.101003 -0.675549,-0.19479 -1.006904,-0.30685 -0.602311,-0.203717 -1.200507,-0.464414 -1.818933,-0.641394 -0.134622,-0.0384 -0.155141,0.03087 -0.227467,0.05579 -0.112451,0.03855 -0.270203,-0.11274 -0.357237,0.05579 -0.188877,0.06477 -0.36625,0.152172 -0.552142,0.223121 -0.10651,0.04058 -0.220541,0.0668 -0.324849,0.111436 -0.0913,0.03912 -0.166879,0.103177 -0.25987,0.139551 -0.02956,0.0116 -0.06782,-0.0116 -0.09753,0 -0.859269,0.327891 1.576205,-0.0726 -1.299177,0.390305 -0.18969,0.03043 -0.317574,0.04724 -0.458095,0.06666 a 5.1320878,4.4062759 0 0 0 5.102863,4.088603 5.1320878,4.4062759 0 0 0 5.13211,-4.406307 5.1320878,4.4062759 0 0 0 -0.0029,-0.06506 z"
       style="fill:#d5ffe6;stroke:#5fd38d;stroke-width:0.0297931"
       id="path32" />
    <text
       xml:space="preserve"
       style="font-weight:bold;font-size:18.9386px;font-family:Poppins;-inkscape-font-specification:'Poppins, Bold';text-align:start;writing-mode:lr-tb;direction:ltr;text-anchor:start;fill:#ff93c2;fill-opacity:1;stroke:#d37c5f;stroke-width:0.0689062;stroke-dasharray:none;stroke-opacity:1"
       x="74.458336"
       y="111.93153"
       id="text33"><tspan
         sodipodi:role="line"
         id="tspan33"
         style="fill:#ff93c2;fill-opacity:1;stroke-width:0.0689062"
         x="74.458336"
         y="111.93153">Pecah Telur</tspan></text>
    <text
       xml:space="preserve"
       style="font-style:normal;font-variant:normal;font-weight:normal;font-stretch:normal;font-size:8.40836px;font-family:'Times New Roman';-inkscape-font-specification:'Times New Roman, Normal';font-variant-ligatures:normal;font-variant-caps:normal;font-variant-numeric:normal;font-variant-east-asian:normal;text-align:start;writing-mode:lr-tb;direction:ltr;text-anchor:start;fill:#000000;fill-opacity:1;stroke:#d37c5f;stroke-width:0.0305929;stroke-dasharray:none;stroke-opacity:1"
       x="91.658669"
       y="119.97976"
       id="text35"><tspan
         sodipodi:role="line"
         id="tspan35"
         style="font-style:normal;font-variant:normal;font-weight:normal;font-stretch:normal;font-size:8.40836px;font-family:'Times New Roman';-inkscape-font-specification:'Times New Roman, Normal';font-variant-ligatures:normal;font-variant-caps:normal;font-variant-numeric:normal;font-variant-east-asian:normal;fill:#000000;stroke-width:0.0305929"
         x="91.658669"
         y="119.97976">Design by Masak Batu</tspan></text>
  </g>
</svg>
