<?xml version="1.0" encoding="UTF-8" standalone="no"?>
<!-- Created with Inkscape (http://www.inkscape.org/) -->

<svg
   width="210mm"
   height="210mm"
   viewBox="0 0 210 210"
   version="1.1"
   id="svg1"
   inkscape:version="1.4 (86a8ad7, 2024-10-11)"
   sodipodi:docname="tambler.svg"
   xmlns:inkscape="http://www.inkscape.org/namespaces/inkscape"
   xmlns:sodipodi="http://sodipodi.sourceforge.net/DTD/sodipodi-0.dtd"
   xmlns="http://www.w3.org/2000/svg"
   xmlns:svg="http://www.w3.org/2000/svg">
  <sodipodi:namedview
     id="namedview1"
     pagecolor="#ffffff"
     bordercolor="#000000"
     borderopacity="0.25"
     inkscape:showpageshadow="2"
     inkscape:pageopacity="0.0"
     inkscape:pagecheckerboard="0"
     inkscape:deskcolor="#d1d1d1"
     inkscape:document-units="mm"
     inkscape:zoom="0.39781304"
     inkscape:cx="463.7857"
     inkscape:cy="403.45585"
     inkscape:window-width="1920"
     inkscape:window-height="974"
     inkscape:window-x="-11"
     inkscape:window-y="-11"
     inkscape:window-maximized="1"
     inkscape:current-layer="layer1"
     showgrid="false" />
  <defs
     id="defs1">
    <inkscape:path-effect
       effect="fillet_chamfer"
       id="path-effect22"
       is_visible="true"
       lpeversion="1"
       nodesatellites_param="F,0,0,1,0,0,0,1 @ F,0,0,1,0,0,0,1 @ F,0,0,1,0,13.404885,0,1 @ F,0,0,1,0,0,0,1 @ F,0,0,1,0,0,0,1"
       radius="0"
       unit="px"
       method="auto"
       mode="F"
       chamfer_steps="1"
       flexible="false"
       use_knot_distance="true"
       apply_no_radius="true"
       apply_with_radius="true"
       only_selected="false"
       hide_knots="false" />
    <inkscape:path-effect
       effect="fillet_chamfer"
       id="path-effect20"
       is_visible="true"
       lpeversion="1"
       nodesatellites_param="F,0,0,1,0,0,0,1 @ F,0,0,1,0,0,0,1 @ F,0,0,1,0,13.404885,0,1 @ F,0,0,1,0,0,0,1 @ F,0,0,1,0,0,0,1"
       radius="0"
       unit="px"
       method="auto"
       mode="F"
       chamfer_steps="1"
       flexible="false"
       use_knot_distance="true"
       apply_no_radius="true"
       apply_with_radius="true"
       only_selected="false"
       hide_knots="false" />
    <inkscape:path-effect
       effect="fillet_chamfer"
       id="path-effect19"
       is_visible="true"
       lpeversion="1"
       nodesatellites_param="F,0,0,1,0,0,0,1 @ F,0,0,1,0,0,0,1 @ F,0,0,1,0,0,0,1 @ F,0,0,1,0,0,0,1 @ F,0,0,1,0,0,0,1 @ F,0,0,1,0,0,0,1 @ F,0,0,1,0,0,0,1 @ F,0,0,1,0,0,0,1 @ F,0,0,1,0,0,0,1 @ F,0,0,1,0,4.3951384,0,1"
       radius="0"
       unit="px"
       method="auto"
       mode="F"
       chamfer_steps="1"
       flexible="false"
       use_knot_distance="true"
       apply_no_radius="true"
       apply_with_radius="true"
       only_selected="false"
       hide_knots="false" />
    <inkscape:path-effect
       effect="fillet_chamfer"
       id="path-effect18"
       is_visible="true"
       lpeversion="1"
       nodesatellites_param="F,0,0,1,0,0,0,1 @ F,0,0,1,0,0,0,1 @ F,0,0,1,0,0,0,1 @ F,0,0,1,0,0,0,1 @ F,0,0,1,0,1.7078787,0,1"
       radius="0"
       unit="px"
       method="auto"
       mode="F"
       chamfer_steps="1"
       flexible="false"
       use_knot_distance="true"
       apply_no_radius="true"
       apply_with_radius="true"
       only_selected="false"
       hide_knots="false" />
    <inkscape:path-effect
       effect="fillet_chamfer"
       id="path-effect9"
       is_visible="true"
       lpeversion="1"
       nodesatellites_param="F,0,0,1,0,5.9629049,0,1 @ F,0,0,1,0,0,0,1 @ F,0,0,1,0,5.9629049,0,1 @ F,0,0,1,0,0,0,1"
       radius="0"
       unit="px"
       method="auto"
       mode="F"
       chamfer_steps="1"
       flexible="false"
       use_knot_distance="true"
       apply_no_radius="true"
       apply_with_radius="true"
       only_selected="false"
       hide_knots="false" />
  </defs>
  <g
     inkscape:label="Layer 1"
     inkscape:groupmode="layer"
     id="layer1">
    <rect
       style="fill:#f9f9f9;fill-opacity:1;stroke-width:0.497001"
       id="rect2"
       width="209.61273"
       height="209.61273"
       x="0.19363403"
       y="0.19363403"
       inkscape:export-filename="rect2ERGHGDFHFGHFGHERGEGERG.png"
       inkscape:export-xdpi="302.93964"
       inkscape:export-ydpi="302.93964" />
    <path
       id="path17"
       style="fill:#666666;fill-opacity:1;stroke:none;stroke-width:0.497001;stroke-dasharray:none;stroke-opacity:1"
       d="m 68.072847,80.00752 -3.86798,2.873209 5.193998,4.088639 1.547192,31.494722 12.708268,38.67774 2.541447,-2.32079 V 96.466463 c -0.937329,-1.073581 -2.016414,-1.67845 -2.016414,-1.67845 1.123257,0 1.799723,-3.649225 2.016414,-5.028117 V 84.623833 A 4.4491047,4.4491047 45.349606 0 0 81.800961,80.17506 Z"
       inkscape:path-effect="#path-effect19"
       inkscape:original-d="m 68.072847,80.00752 -3.86798,2.873209 5.193998,4.088639 1.547192,31.494722 12.708268,38.67774 2.541447,-2.32079 V 96.466463 c -0.937329,-1.073581 -2.016414,-1.67845 -2.016414,-1.67845 1.123257,0 1.799723,-3.649225 2.016414,-5.028117 v -9.531201 z"
       transform="translate(-11.169128,-14.391548)" />
    <path
       style="fill:#666666;fill-opacity:1;stroke:none;stroke-width:0.497001;stroke-dasharray:none;stroke-opacity:1"
       d="m 98.556112,68.455567 c 0,0 -11.663547,-4.397321 -21.209237,-0.97973 -0.0393,0.353545 0.50728,11.625331 0.50728,11.625331 l 0.86422,0.432109 z"
       id="path20"
       sodipodi:nodetypes="ccccc" />
    <path
       style="fill:#666666;fill-opacity:1;stroke:none;stroke-width:0.497001;stroke-dasharray:none;stroke-opacity:1"
       d="m 29.8001,68.455567 c 0,0 11.663548,-4.397321 21.209238,-0.97973 0.0393,0.353545 -0.50728,11.625331 -0.50728,11.625331 l -0.86422,0.432109 z"
       id="path13"
       sodipodi:nodetypes="ccccc" />
    <path
       style="fill:#666666;fill-opacity:1;stroke:none;stroke-width:0.310967;stroke-dasharray:none;stroke-opacity:1"
       d="m 52.836214,68.413962 2.445789,-0.879384 c 0,0 7.55721,-0.961828 15.636555,0.384731 0.274814,0.02748 1.923656,0.741981 1.923656,0.741981 0,0 -6.403018,3.5725 -6.512941,3.545019 -0.109923,-0.02748 -7.007596,-0.604577 -8.519039,-1.016788 -1.511442,-0.412212 -4.97402,-2.775559 -4.97402,-2.775559 z"
       id="path8" />
    <path
       style="fill:#e372ff;fill-opacity:1;stroke:none;stroke-width:0.310967;stroke-dasharray:none;stroke-opacity:1"
       d="m 71.55062,81.329923 0.796938,-0.851903 -0.02747,-1.016789 -15.41671,0.05497 -3.545018,0.05496 v 1.154191 l 1.12671,1.099231 14.042673,1.236635 z"
       id="path4" />
    <path
       style="fill:#666666;fill-opacity:1;stroke:none;stroke-width:0.315779;stroke-dasharray:none;stroke-opacity:1"
       d="m 52.814465,81.716814 3.427128,-1.18624 c 0,0 6.01545,-1.309807 14.331629,0.172993 l 2.324697,0.963821 -2.348661,3.78114 -17.567031,-3.113879 z"
       id="path3" />
    <path
       style="fill:#666666;fill-opacity:1;stroke:none;stroke-width:0.310967;stroke-dasharray:none;stroke-opacity:1"
       d="m 72.846663,142.24585 v 0.87703 c 0,0 -10.395428,3.09541 -19.93962,-0.41272 v -0.56749 z"
       id="path2"
       sodipodi:nodetypes="ccc" />
    <path
       id="rect1"
       style="fill:#e372ff;fill-opacity:1;stroke-width:0.0606917"
       d="m 62.253554,80.871682 c -3.94561,0.04145 -7.159768,0.476657 -9.50954,0.934754 v 60.483914 c 5.661351,1.69912 12.502587,2.28914 20.226084,0.17137 V 81.718167 C 69.011094,81.060825 65.405107,80.838571 62.253554,80.871682 Z" />
    <path
       d="m 72.970098,79.461284 h -20.22608 v 0.551606 c 5.66135,0.356216 12.502578,0.47989 20.22608,0.03589 z"
       style="fill:#666666;fill-opacity:1;stroke-width:0.0277892"
       id="path7" />
    <path
       id="path11"
       style="fill:#e372ff;fill-opacity:1;stroke-width:0.0277892"
       d="m 72.78895,81.896006 c -4.250084,-0.0048 -7.145567,0.465184 -8.875808,0.873322 v 11.193457 h 20.226084 v -9.395692 c 0,-0.943236 -0.755305,-1.827534 -1.689785,-1.955657 -3.770603,-0.516972 -6.982182,-0.712386 -9.660491,-0.71543 z"
       inkscape:path-effect="#path-effect18"
       inkscape:original-d="m 72.78895,81.896006 c -4.250084,-0.0048 -7.145567,0.465184 -8.875808,0.873322 V 93.962785 H 84.139226 V 82.859214 C 79.629342,82.155718 75.858844,81.899495 72.78895,81.896006 Z"
       transform="translate(-11.169128,-14.391548)" />
    <path
       id="path21"
       style="fill:#e372ff;fill-opacity:1;stroke-width:0.0277892"
       d="m 97.389789,81.817441 c -4.250085,-0.0048 -7.145568,0.465184 -8.875808,0.873322 a 12.348775,12.348775 39.862838 0 0 13.404889,11.193459 h 6.8212 V 82.780649 c -4.50989,-0.703496 -8.28039,-0.959719 -11.350281,-0.963208 z"
       inkscape:path-effect="#path-effect22"
       inkscape:original-d="m 97.389789,81.817441 c -4.250085,-0.0048 -7.145568,0.465184 -8.875808,0.873322 V 93.884222 H 108.74007 V 82.780649 c -4.50989,-0.703496 -8.28039,-0.959719 -11.350281,-0.963208 z"
       transform="matrix(-1,0,0,1,187.3751,-14.391548)" />
    <path
       id="path14"
       style="fill:#e372ff;fill-opacity:1;stroke-width:0.0277892"
       d="m 97.389789,81.817441 c -4.250085,-0.0048 -7.145568,0.465184 -8.875808,0.873322 a 12.348775,12.348775 39.862838 0 0 13.404889,11.193459 h 6.8212 V 82.780649 c -4.50989,-0.703496 -8.28039,-0.959719 -11.350281,-0.963208 z"
       inkscape:path-effect="#path-effect20"
       inkscape:original-d="m 97.389789,81.817441 c -4.250085,-0.0048 -7.145568,0.465184 -8.875808,0.873322 V 93.884222 H 108.74007 V 82.780649 c -4.50989,-0.703496 -8.28039,-0.959719 -11.350281,-0.963208 z"
       transform="translate(-59.018892,-14.391548)" />
    <circle
       style="fill:#f9f9f9;fill-opacity:1;stroke:none;stroke-width:0.310967;stroke-dasharray:none;stroke-opacity:1"
       id="path9"
       cx="67.839806"
       cy="89.512375"
       r="2.6427302" />
    <path
       style="fill:#f9f9f9;fill-opacity:1;stroke:none;stroke-width:0.497001;stroke-dasharray:none;stroke-opacity:1"
       id="rect9"
       width="5.9629049"
       height="75.033226"
       x="99.133293"
       y="97.145668"
       sodipodi:type="rect"
       transform="matrix(0.62568711,0,0,0.62568711,3.637015,32.771404)"
       d="m 105.0962,97.145668 h 0 v 69.070322 a 5.9629049,5.9629049 135 0 1 -5.962907,5.9629 h 0 v -69.07032 a 5.9629049,5.9629049 135 0 1 5.962907,-5.962902 z"
       inkscape:path-effect="#path-effect9" />
    <text
       xml:space="preserve"
       style="font-style:normal;font-variant:normal;font-weight:normal;font-stretch:normal;font-size:21.8471px;font-family:Baberry;-inkscape-font-specification:'Baberry, Normal';font-variant-ligatures:normal;font-variant-caps:normal;font-variant-numeric:normal;font-variant-east-asian:normal;text-align:start;writing-mode:lr-tb;direction:ltr;text-anchor:start;fill:#e372ff;fill-opacity:1;stroke:none;stroke-width:0.424441;stroke-dasharray:none;stroke-opacity:1"
       x="77.027069"
       y="115.61127"
       id="text11"><tspan
         sodipodi:role="line"
         id="tspan11"
         style="font-style:normal;font-variant:normal;font-weight:normal;font-stretch:normal;font-size:21.8471px;font-family:Baberry;-inkscape-font-specification:'Baberry, Normal';font-variant-ligatures:normal;font-variant-caps:normal;font-variant-numeric:normal;font-variant-east-asian:normal;fill:#e372ff;fill-opacity:1;stroke-width:0.42444"
         x="77.027069"
         y="115.61127">ambler</tspan></text>
    <text
       xml:space="preserve"
       style="font-style:normal;font-variant:normal;font-weight:normal;font-stretch:normal;font-size:11.5714px;font-family:'Book Antiqua';-inkscape-font-specification:'Book Antiqua, Normal';font-variant-ligatures:normal;font-variant-caps:normal;font-variant-numeric:normal;font-variant-east-asian:normal;text-align:start;writing-mode:lr-tb;direction:ltr;text-anchor:start;fill:#1a1a1a;fill-opacity:1;stroke-width:0.263238"
       x="77.98954"
       y="127.49952"
       id="text1"><tspan
         sodipodi:role="line"
         id="tspan1"
         style="font-style:normal;font-variant:normal;font-weight:normal;font-stretch:normal;font-size:11.5714px;font-family:'Book Antiqua';-inkscape-font-specification:'Book Antiqua, Normal';font-variant-ligatures:normal;font-variant-caps:normal;font-variant-numeric:normal;font-variant-east-asian:normal;fill:#1a1a1a;stroke-width:0.263238"
         x="77.98954"
         y="127.49952">The tag name brand</tspan></text>
    <path
       style="fill:#999999;fill-opacity:1;stroke:none;stroke-width:0.0467991;stroke-dasharray:none;stroke-opacity:1"
       d="m 190.15821,176.45779 c -1.46491,-0.66587 -4.5279,2.39713 -0.39952,3.52911 4.12839,1.13197 -0.59928,3.46251 -0.59928,3.46251 0,0 8.52312,0.93222 1.46491,9.05582 -7.05821,8.1236 -11.91905,-0.26635 -12.98444,-0.26635 -2.19737,-3.39593 -6.12599,0.99881 -2.19737,-3.39593 3.92863,-4.39473 5.26037,-3.39593 5.26037,-3.39593 0,0 -6.45893,-4.32815 -0.93222,-5.12719 5.52671,-0.79904 1.06539,-2.06419 4.0618,-3.39593 2.99641,-1.33174 3.063,-4.46132 3.063,-4.46132 z"
       id="path1"
       inkscape:export-filename="pcxxZCzczcczcath1.png"
       inkscape:export-xdpi="598.29858"
       inkscape:export-ydpi="598.29858" />
    <path
       style="fill:#b3b3b3;fill-opacity:1;stroke:none;stroke-width:0.0302408;stroke-dasharray:none;stroke-opacity:1"
       d="m 187.63388,179.57256 c -0.83458,-0.48802 -2.57962,1.75686 -0.22761,2.5865 2.35202,0.82963 -0.34142,2.53769 -0.34142,2.53769 0,0 4.85577,0.68322 0.83459,6.63704 -4.02119,5.95382 -6.7905,-0.19521 -7.39747,-0.19521 -1.25188,-2.48889 -3.49009,0.73203 -1.25188,-2.48889 2.23821,-3.22092 2.99692,-2.48889 2.99692,-2.48889 0,0 -3.67977,-3.17211 -0.5311,-3.75774 3.14867,-0.58562 0.60697,-1.51285 2.31408,-2.48889 1.7071,-0.97603 1.74504,-3.26972 1.74504,-3.26972 z"
       id="path2-8" />
    <path
       style="fill:#cccccc;fill-opacity:1;stroke:none;stroke-width:0.0169328;stroke-dasharray:none;stroke-opacity:1"
       d="m 186.1216,182.08747 c -0.46731,-0.27326 -1.44442,0.98372 -0.12745,1.44826 1.31696,0.46453 -0.19117,1.42093 -0.19117,1.42093 0,0 2.71889,0.38256 0.4673,3.71628 -2.25158,3.33372 -3.8022,-0.10931 -4.14206,-0.10931 -0.70097,-1.3936 -1.95421,0.40989 -0.70097,-1.3936 1.25324,-1.80349 1.67807,-1.39361 1.67807,-1.39361 0,0 -2.06041,-1.77616 -0.29738,-2.10407 1.76303,-0.3279 0.33986,-0.84709 1.29573,-1.3936 0.95585,-0.54652 0.9771,-1.83082 0.9771,-1.83082 z"
       id="path3-2" />
    <path
       style="fill:#999999;fill-opacity:1;stroke:none;stroke-width:0.0351201;stroke-dasharray:none;stroke-opacity:1"
       d="m 192.8131,179.80679 c 0,0 -1.31248,-2.59689 -0.3375,-2.92982 0.97499,-0.33294 1.76248,0.33293 1.31248,1.39832 -0.44999,1.06539 -0.97498,1.5315 -0.97498,1.5315 z"
       id="path5" />
    <path
       style="fill:#999999;fill-opacity:1;stroke:none;stroke-width:0.0344653;stroke-dasharray:none;stroke-opacity:1"
       d="m 186.90287,167.81723 c 0,0 -1.264,-2.59689 -0.32503,-2.92982 0.93897,-0.33294 1.69737,0.33293 1.264,1.39832 -0.43337,1.06539 -0.93897,1.5315 -0.93897,1.5315 z"
       id="path6" />
    <path
       style="fill:#999999;fill-opacity:1;stroke:none;stroke-width:0.0292651;stroke-dasharray:none;stroke-opacity:1"
       d="m 190.42215,172.74466 c 0,0 1.45737,-1.62392 0.37476,-1.83212 -1.08262,-0.20819 -1.95704,0.2082 -1.45737,0.87442 0.49966,0.66623 1.08261,0.9577 1.08261,0.9577 z"
       id="path7-4" />
    <path
       style="fill:#999999;fill-opacity:1;stroke:none;stroke-width:0.0370148;stroke-dasharray:none;stroke-opacity:1"
       d="m 174.24136,184.19368 c 0,0 -1.45791,-2.59689 -0.37489,-2.92982 1.08303,-0.33294 1.95778,0.33293 1.45792,1.39832 -0.49986,1.06539 -1.08303,1.5315 -1.08303,1.5315 z"
       id="path8-5" />
    <path
       style="fill:#999999;fill-opacity:1;stroke:none;stroke-width:0.0419713;stroke-dasharray:none;stroke-opacity:1"
       d="m 181.89055,175.11616 c 0,0 -1.3852,-3.51421 -0.3562,-3.96474 1.029,-0.45055 1.86012,0.45053 1.3852,1.89226 -0.47492,1.44173 -1.029,2.07248 -1.029,2.07248 z"
       id="path9-5" />
    <path
       style="fill:#cccccc;fill-opacity:1;stroke:none;stroke-width:0.0120317;stroke-dasharray:none;stroke-opacity:1"
       d="m 174.39396,183.17584 c 0,0 -0.4739,-0.84412 -0.12186,-0.95234 0.35204,-0.10823 0.63638,0.10822 0.4739,0.45452 -0.16248,0.34631 -0.35204,0.49782 -0.35204,0.49782 z"
       id="path10" />
    <path
       style="fill:#cccccc;fill-opacity:1;stroke:none;stroke-width:0.0141548;stroke-dasharray:none;stroke-opacity:1"
       d="m 182.03291,173.76367 c 0,0 -0.46716,-1.18516 -0.12013,-1.33711 0.34704,-0.15194 0.62733,0.15195 0.46716,0.63817 -0.16017,0.48622 -0.34703,0.69894 -0.34703,0.69894 z"
       id="path11-1" />
    <path
       style="fill:#cccccc;fill-opacity:1;stroke:none;stroke-width:0.0134825;stroke-dasharray:none;stroke-opacity:1"
       d="m 187.0222,166.89912 c 0,0 -0.49446,-1.01587 -0.12715,-1.14611 0.36732,-0.13024 0.664,0.13024 0.49447,0.54701 -0.16953,0.41677 -0.36732,0.5991 -0.36732,0.5991 z"
       id="path12" />
    <path
       style="fill:#cccccc;fill-opacity:1;stroke:none;stroke-width:0.0129418;stroke-dasharray:none;stroke-opacity:1"
       d="m 190.2961,172.21867 c 0,0 0.64449,-0.71815 0.16572,-0.81022 -0.47876,-0.0921 -0.86545,0.0921 -0.64449,0.3867 0.22097,0.29462 0.47877,0.42352 0.47877,0.42352 z"
       id="path13-7" />
    <path
       style="fill:#cccccc;fill-opacity:1;stroke:none;stroke-width:0.0144872;stroke-dasharray:none;stroke-opacity:1"
       d="m 192.93267,178.92083 c 0,0 -0.5414,-1.07123 -0.13922,-1.20857 0.40219,-0.13734 0.72703,0.13734 0.54141,0.57682 -0.18563,0.43948 -0.40219,0.63175 -0.40219,0.63175 z"
       id="path14-1" />
    <text
       xml:space="preserve"
       style="font-style:normal;font-variant:normal;font-weight:bold;font-stretch:normal;font-size:7.0439px;font-family:Poppins;-inkscape-font-specification:'Poppins, Bold';font-variant-ligatures:normal;font-variant-caps:normal;font-variant-numeric:normal;font-variant-east-asian:normal;text-align:start;writing-mode:lr-tb;direction:ltr;text-anchor:start;fill:#b3b3b3;fill-opacity:1;stroke:none;stroke-width:0.0363923;stroke-dasharray:none;stroke-opacity:1"
       x="162.26808"
       y="203.12775"
       id="text14"><tspan
         sodipodi:role="line"
         id="tspan14"
         style="font-style:normal;font-variant:normal;font-weight:bold;font-stretch:normal;font-size:7.0439px;font-family:Poppins;-inkscape-font-specification:'Poppins, Bold';font-variant-ligatures:normal;font-variant-caps:normal;font-variant-numeric:normal;font-variant-east-asian:normal;fill:#b3b3b3;stroke-width:0.0363923"
         x="162.26808"
         y="203.12775">Masak Batu</tspan></text>
    <text
       xml:space="preserve"
       style="font-style:normal;font-variant:normal;font-weight:normal;font-stretch:normal;font-size:21.8471px;font-family:Castellar;-inkscape-font-specification:'Castellar, Normal';font-variant-ligatures:normal;font-variant-caps:normal;font-variant-numeric:normal;font-variant-east-asian:normal;text-align:start;writing-mode:lr-tb;direction:ltr;text-anchor:start;fill:#f9f9f9;fill-opacity:1;stroke-width:0.497001"
       x="58.724194"
       y="175.76477"
       id="text2"><tspan
         sodipodi:role="line"
         id="tspan2"
         style="stroke-width:0.497"
         x="58.724194"
         y="175.76477" /></text>
  </g>
</svg>
